<?xml version="1.0"?>
<svg version="1.1" xmlns="http://www.w3.org/2000/svg" width="95" height="60" style=""><path fill="#ffffff" d="M51.5478515625,48.2861328125l0,0.048828125l0-0.048828125q0.09765625,0.1953125-0.35400390625,0.42724609375t-0.45166015625,0.47607421875l0,0.09765625q0.048828125,0.29296875,0.048828125,0.9033203125q0.048828125,0.1953125,0.048828125,0.5859375l0,0.6103515625q0.048828125,0.1953125,0.048828125,1.0009765625l0,0.29296875q0.1708984375,0.439453125,0.1708984375,1.1962890625q0,0.5126953125-0.048828125,0.6103515625t-0.08544921875,0.3173828125t-0.08544921875,0.3173828125q0.048828125,0.09765625,0.048828125,0.3173828125q0,0.244140625-0.1220703125,0.8056640625t-0.1220703125,0.78125q0.1953125-0.09765625,0.244140625-0.09765625q0.2197265625,0,0.2197265625,0.1953125q0,0.3662109375-0.3173828125,0.5126953125q0.2197265625-0.146484375,0.3173828125-0.146484375q0.146484375,0,0.146484375,0.244140625t-0.1953125,0.537109375q-0.3173828125,0.4150390625-0.3173828125,0.5615234375q0,0.3173828125-0.244140625,0.48828125q-0.0732421875,0.0244140625-0.3173828125,0.18310546875t-0.439453125,0.18310546875q-0.5859375,0.09765625-1.0498046875,0.09765625q-0.1708984375,0-0.52490234375-0.0244140625t-0.52490234375-0.0244140625q-0.09765625-0.048828125-0.341796875-0.048828125l-0.341796875,0q-0.0732421875,0-0.28076171875,0.048828125t-0.28076171875,0.048828125l-0.09765625,0q-0.09765625-0.048828125-0.244140625-0.048828125q-0.09765625,0-0.29296875,0.048828125t-0.2685546875,0.048828125q-0.048828125,0-0.10986328125-0.0244140625t-0.08544921875-0.0244140625q-0.29296875-0.09765625-0.390625-0.09765625q-0.0732421875,0-0.2197265625,0.0244140625t-0.29296875,0.0244140625q-0.3662109375,0.146484375-0.8544921875,0.146484375q-0.29296875,0-0.78125-0.09765625q-0.29296875,0.09765625-0.8056640625,0.09765625l-0.146484375,0l-0.4638671875,0q-0.390625,0-0.537109375-0.146484375l-0.09765625,0q-0.09765625,0-0.35400390625,0.0732421875t-0.35400390625,0.0732421875q-0.0732421875,0-0.15869140625-0.048828125t-0.13427734375-0.048828125q-0.146484375,0.048828125-0.4150390625,0.048828125q-0.5615234375,0-1.7822265625-0.1953125q-0.1953125,0.09765625-0.4638671875,0.09765625q-0.09765625,0-0.29296875-0.09765625l-0.09765625,0q-0.048828125,0-0.09765625-0.0244140625t-0.09765625-0.0244140625q-0.0732421875,0.048828125-0.1708984375,0.09765625l-0.1953125,0.09765625q-0.2197265625,0.09765625-0.341796875,0.09765625l-0.390625,0q-0.2685546875,0-0.4150390625,0.048828125l-0.146484375,0q-0.146484375,0-0.341796875-0.09765625q-0.09765625,0.09765625-0.3662109375,0.09765625t-0.48828125-0.146484375q-0.2197265625,0-0.5859375-0.08544921875t-0.5126953125-0.10986328125q-0.244140625-0.048828125-0.8056640625-0.048828125q-0.0732421875,0.0244140625-0.341796875,0.10986328125t-0.4150390625,0.08544921875l-0.09765625,0q-0.48828125-0.146484375-1.4892578125-0.146484375q-0.048828125,0-0.13427734375,0.0244140625t-0.10986328125,0.0244140625l-0.1220703125,0l-0.1953125-0.09765625q-0.146484375,0.146484375-0.341796875,0.146484375l-0.341796875,0l-0.2197265625,0q-0.4150390625,0.244140625-0.87890625,0.244140625q-0.09765625,0-0.390625-0.0244140625t-0.5126953125-0.0244140625q-0.0732421875,0-0.20751953125-0.0244140625t-0.20751953125-0.0244140625l-0.146484375,0q-0.0244140625,0-0.08544921875,0.0244140625t-0.10986328125,0.0244140625q-0.1953125,0-0.341796875-0.146484375l-0.09765625,0q-0.0732421875,0-0.2197265625-0.0244140625t-0.1953125-0.0244140625q-0.09765625,0.048828125-0.390625,0.048828125q-0.2197265625,0-1.2451171875-0.146484375q-0.146484375,0.048828125-0.5615234375,0.048828125q-0.341796875,0-0.439453125-0.09765625q-0.390625,0.09765625-0.5615234375,0.09765625q-0.09765625,0.0244140625-0.42724609375,0.146484375t-0.47607421875,0.146484375q-0.09765625,0.048828125-0.244140625,0.048828125q-0.1220703125,0-0.341796875-0.0732421875t-0.3173828125-0.0732421875q-0.0244140625,0-0.0732421875,0.0244140625t-0.0732421875,0.0244140625t-0.09765625,0.0244140625t-0.09765625,0.0244140625q-0.09765625,0-0.244140625-0.048828125t-0.244140625-0.048828125q-0.0244140625,0-0.18310546875,0.0244140625t-0.18310546875,0.0244140625q-0.146484375-0.048828125-0.45166015625-0.06103515625t-0.40283203125-0.03662109375q-0.9521484375-0.2197265625-0.9521484375-0.7080078125q0-0.146484375,0.048828125-0.244140625l0-0.09765625q0-0.09765625,0.06103515625-0.30517578125t0.06103515625-0.30517578125q0-0.146484375-0.048828125-0.1953125q-0.1708984375-0.1708984375-0.1708984375-0.29296875q0-0.048828125,0.1708984375-0.5615234375q0.146484375-0.439453125,0.146484375-0.9521484375q0-0.09765625-0.0244140625-0.29296875t-0.0244140625-0.29296875q-0.29296875,0.1953125-0.4638671875,0.1953125l-0.048828125,0q0-0.2685546875,0.29296875-0.341796875q-0.1220703125-0.1220703125-0.244140625-0.1220703125l-0.09765625,0q0.0244140625,0,0.20751953125-0.0732421875t0.244140625-0.13427734375t0.06103515625-0.18310546875q0-0.2197265625,0.244140625-0.390625q0.146484375-0.1708984375,0.5615234375-0.3173828125t0.68359375-0.146484375q0.1708984375,0,0.4638671875,0.048828125t0.439453125,0.048828125l0.146484375,0q0.0244140625,0,0.08544921875-0.0244140625t0.10986328125-0.0244140625q0.09765625,0,0.1953125,0.09765625q0.2197265625-0.146484375,0.5126953125-0.146484375q0.0732421875-0.048828125,0.4638671875-0.08544921875t0.732421875-0.1220703125t0.341796875-0.28076171875q0-0.048828125-0.09765625-0.244140625l-0.048828125-0.1220703125q0-0.0732421875,0.048828125-0.13427734375t0.146484375-0.1220703125t0.1220703125-0.08544921875q0.1220703125-0.0732421875,0.15869140625-0.20751953125t0.13427734375-0.23193359375q-0.048828125-0.244140625-0.048828125-0.8056640625q-0.5126953125,0.341796875-0.7080078125,0.341796875q-0.1220703125,0-0.1953125-0.146484375l-0.048828125-0.09765625q0-0.2685546875,0.7080078125-0.8056640625q0.29296875-0.244140625,0.29296875-1.0498046875q0-0.2685546875-0.048828125-0.79345703125t-0.048828125-0.69580078125q-0.0244140625-0.2197265625-0.10986328125-0.9765625t-0.08544921875-1.171875l0-0.244140625q0-0.244140625,0.09765625-0.7568359375t0.09765625-0.7568359375l-0.1953125,0q-0.5615234375,0-0.5615234375-0.244140625q0-0.1220703125,0.244140625-0.29296875q0.5126953125-0.1708984375,0.5615234375-0.3662109375q-0.048828125-0.09765625-0.048828125-0.5859375q0-0.0732421875-0.0244140625-0.23193359375t-0.0244140625-0.23193359375q0-0.09765625,0.0244140625-0.25634765625t0.0244140625-0.23193359375l0-0.09765625q0-0.1220703125,0.0732421875-0.4638671875t0.0732421875-0.48828125t-0.048828125-0.1953125q-0.09765625-0.1953125-0.09765625-1.171875q-0.09765625-0.390625-0.09765625-0.732421875l0-0.3173828125q0-0.0732421875-0.0244140625-0.29296875t-0.0244140625-0.341796875q0-0.4638671875,0.09765625-0.9521484375l0-0.29296875q0-0.5126953125,0.09765625-0.9033203125q-0.09765625-0.87890625-0.09765625-1.46484375q-0.09765625-0.5859375-0.09765625-0.830078125l0-0.1220703125q0-0.146484375,0.0732421875-0.5126953125t0.0732421875-0.537109375q0-0.1953125-0.048828125-0.29296875q-0.09765625-0.146484375-0.4638671875-1.0009765625q-0.1708984375-0.341796875-0.537109375-0.341796875l-0.4150390625,0q-0.634765625,0-0.634765625-0.1953125q0-0.0732421875,0.146484375-0.2197265625q-0.1220703125,0-0.4638671875,0.10986328125t-0.48828125,0.10986328125q-0.3173828125,0-0.390625-0.2685546875q-0.048828125-0.0244140625-0.23193359375,0.0732421875t-0.28076171875,0.09765625q-0.1220703125,0-0.1953125-0.0732421875q-0.0244140625,0-0.0732421875-0.0244140625t-0.0732421875-0.0244140625q-0.3662109375,0.1220703125-0.5615234375,0.1220703125q-0.3173828125,0-0.537109375-0.2197265625q-0.146484375-0.146484375-0.146484375-0.634765625q0-0.634765625,0.146484375-1.0009765625q0.048828125-0.29296875,0.048828125-0.9521484375l0-0.4638671875q-0.4150390625,0.2685546875-0.5615234375,0.2685546875l-0.048828125,0q-0.1953125-0.0732421875-0.1953125-0.2197265625q0-0.1708984375,0.25634765625-0.45166015625t0.35400390625-0.32958984375q0.0732421875-0.1220703125,0.13427734375-0.5615234375t0.23193359375-0.69580078125t0.5615234375-0.15869140625l0.4150390625,0q0.29296875,0,0.390625,0.048828125q0.1708984375-0.1220703125,0.47607421875-0.1708984375t0.37841796875-0.0732421875q0.5126953125-0.146484375,1.0986328125-0.146484375q0.4150390625,0,0.5615234375,0.048828125q0.0244140625,0.0244140625,0.32958984375,0.08544921875t0.35400390625,0.10986328125q0.09765625-0.048828125,0.3662109375-0.048828125q0.29296875,0,0.341796875,0.048828125q0.09765625-0.048828125,0.439453125-0.048828125q0.3662109375,0,0.4638671875-0.048828125q0.146484375-0.048828125,0.8544921875-0.048828125q0.2197265625,0.0244140625,0.59814453125-0.03662109375t0.50048828125-0.06103515625q0.29296875,0,0.5859375,0.146484375l0.146484375,0q0.09765625,0,0.29296875,0.048828125t0.2685546875,0.048828125q0.0244140625,0,0.0732421875-0.0244140625t0.0732421875-0.0244140625q0.1953125-0.09765625,0.390625-0.09765625q0.048828125,0,0.146484375,0.0244140625t0.1220703125,0.0244140625q0.3662109375-0.146484375,1.0009765625-0.146484375q0.341796875,0,0.634765625,0.09765625l0.146484375,0q0.2197265625,0,0.6103515625,0.09765625q0.48828125-0.09765625,0.7080078125-0.09765625q0.09765625,0.0244140625,0.32958984375,0.0732421875t0.45166015625,0.08544921875t0.3662109375,0.03662109375q0.0244140625,0,0.09765625-0.0244140625t0.09765625-0.0244140625q0.146484375-0.146484375,0.48828125-0.146484375q0.3662109375,0,0.4638671875,0.048828125q0.29296875-0.09765625,0.48828125-0.09765625q0.2685546875,0,0.4638671875,0.09765625q0.1953125-0.048828125,0.634765625-0.048828125q0.1953125,0,0.64697265625,0.0244140625t0.67138671875,0.0244140625q0.537109375,0,0.830078125-0.09765625q0.2685546875-0.09765625,0.5859375,0.1953125t0.3173828125,0.6103515625q0,0.1953125-0.048828125,0.244140625q0.048828125,0.09765625,0.048828125,0.29296875q0,0.1708984375-0.0732421875,0.5126953125t-0.0732421875,0.48828125q0,0.048828125,0.0244140625,0.13427734375t0.0244140625,0.13427734375q0.09765625-0.048828125,0.3173828125-0.048828125q0.390625,0,0.390625,0.29296875q0,0.2685546875-0.244140625,0.439453125q0.341796875,0.1708984375,0.341796875,0.4638671875q0,0.1220703125-0.146484375,0.1953125t-0.30517578125,0.28076171875t-0.35400390625,0.30517578125q0.09765625,0.1953125,0.09765625,0.5126953125q0,0.3662109375-0.1953125,0.48828125q-0.537109375,0.3173828125-0.8544921875,0.3173828125l-0.146484375,0q-0.1220703125,0-0.341796875-0.048828125t-0.341796875-0.048828125t-0.4150390625,0.09765625q-0.0244140625,0-0.09765625,0.0244140625t-0.09765625,0.0244140625q-0.09765625,0-0.1953125-0.09765625q-0.048828125-0.09765625-0.09765625-0.09765625l-0.146484375,0q-0.48828125,0.244140625-0.6103515625,0.244140625q-0.1953125,0-0.1953125-0.3173828125q-0.48828125,0.244140625-1.11083984375,0.68359375t-0.64697265625,0.732421875q0.341796875,0,0.341796875,0.146484375q0,0.1220703125-0.2685546875,0.4150390625l-0.2685546875,0.29296875q0,0.2197265625-0.13427734375,0.64697265625t-0.15869140625,0.59814453125q0.146484375-0.0244140625,0.3173828125,0.048828125t0.1708984375,0.1953125q0,0.146484375-0.09765625,0.1953125q-0.0244140625,0.0732421875-0.1953125,0.15869140625t-0.1953125,0.15869140625q0.09765625,0.78125,0.09765625,1.3427734375q0.1953125,0.390625,0.1953125,1.0009765625q0,0.5615234375-0.1953125,1.3427734375q0.048828125-0.048828125,0.1953125-0.048828125q0.29296875,0,0.29296875,0.1953125q0,0.048828125-0.09765625,0.146484375q-0.0732421875,0.1220703125-0.341796875,0.2685546875q-0.146484375,0.146484375-0.146484375,0.244140625q0,0.048828125,0.0244140625,0.146484375t0.0244140625,0.146484375l0,0.09765625q0.1953125,0.6103515625,0.1953125,2.197265625q0.09765625,0.78125,0.09765625,1.220703125q0,1.123046875-0.29296875,2.83203125q0.0244140625,0,0.244140625-0.1220703125t0.341796875-0.1220703125q0.1953125,0,0.244140625,0.244140625q0.0244140625,0.146484375-0.08544921875,0.32958984375t-0.23193359375,0.30517578125t-0.3173828125,0.29296875t-0.244140625,0.2197265625q0,0.0732421875-0.0244140625,0.2197265625t-0.0244140625,0.1953125q0,0.3173828125,0.0732421875,0.86669921875t0.0732421875,0.81787109375q0,0.3662109375-0.048828125,0.5126953125q0,0.29296875,0.0244140625,0.927734375t0.0244140625,0.927734375q0,0.6591796875-0.048828125,0.9521484375q0.048828125,0.244140625,0.048828125,0.830078125l0,0.3173828125q0,0.29296875,0.09765625,0.29296875l0.1953125,0q0.244140625,0.0732421875,0.244140625,0.29296875q0,0.09765625-0.09765625,0.1953125q0.244140625,0.1220703125,0.4150390625,0.1220703125q0.244140625,0,0.76904296875-0.13427734375t0.76904296875-0.13427734375q0.29296875,0,0.439453125,0.09765625q0.09765625-0.048828125,0.4150390625-0.048828125l0.390625,0q0.146484375,0,0.4638671875,0.10986328125t0.439453125,0.10986328125l0.048828125,0q0.0732421875,0,0.20751953125-0.0732421875t0.18310546875-0.09765625q0.09765625-0.048828125,0.2685546875-0.048828125q0.146484375,0,0.1953125,0.048828125q0.2197265625-0.146484375,0.48828125-0.146484375q0.1220703125,0.0244140625,0.40283203125-0.01220703125t0.35400390625-0.03662109375q0.3662109375,0,0.5615234375,0.1953125q0.09765625-0.09765625,0.29296875-0.09765625l0.244140625,0q0.146484375,0,0.1953125-0.048828125q0.1708984375-0.244140625,0.8544921875-0.244140625l0.3662109375,0q0.146484375,0,0.341796875-0.09765625t0.390625-0.09765625q0.146484375,0,0.244140625,0.048828125q0.0732421875-0.048828125,0.18310546875-0.09765625t0.1708984375-0.08544921875t0.1220703125-0.10986328125t0.08544921875-0.1708984375q0.09765625-0.5126953125,0.341796875-0.634765625q0.09765625-0.09765625,0.2685546875-0.09765625l0.09765625,0q0.09765625,0,0.146484375-0.146484375q0.048828125-0.1220703125,0.18310546875-0.2685546875t0.15869140625-0.1953125q0-0.29296875,0.5615234375-1.0498046875q0.09765625-0.1220703125,0.244140625-0.37841796875t0.244140625-0.37841796875q0.0244140625-0.1953125,0.09765625-0.830078125t0.146484375-0.9521484375l0-0.146484375q0-0.7080078125,0.2197265625-1.3671875q-0.4150390625,0.146484375-0.4150390625-0.146484375q0-0.1953125,0.3173828125-0.91552734375t0.244140625-0.84228515625q-0.09765625-0.1953125-0.09765625-0.29296875q0-0.4150390625,0.78125-0.8056640625q0.0244140625,0,0.10986328125-0.0244140625t0.10986328125-0.0244140625q0.1953125,0,0.5859375,0.1953125q0.0244140625,0,0.0732421875,0.03662109375t0.0732421875,0.03662109375q0.0732421875,0,0.2197265625-0.08544921875t0.244140625-0.13427734375l0.1953125,0q0.09765625,0,0.32958984375,0.0244140625t0.32958984375,0.0244140625q0.1953125,0,0.244140625-0.048828125q0.146484375-0.09765625,0.439453125-0.09765625q0.09765625,0,0.32958984375,0.0244140625t0.32958984375,0.0244140625q0.68359375,0,1.0986328125,0.35400390625t0.341796875,0.96435546875q0.244140625-0.1708984375,0.3173828125-0.1708984375q0.244140625,0,0.244140625,0.3173828125q0,0.29296875-0.1953125,0.48828125q-0.048828125,0.0732421875-0.15869140625,0.1708984375t-0.15869140625,0.1708984375t-0.048828125,0.1708984375l0,0.09765625l0,0.1953125l0,0.09765625q0,1.3671875,0.09765625,1.85546875q0.0244140625,0,0.20751953125-0.09765625t0.30517578125-0.09765625q0.1708984375,0,0.244140625,0.146484375z M49.5947265625,49.62890625q0.0244140625,0.048828125-0.18310546875,0.20751953125t-0.52490234375,0.35400390625t-0.62255859375,0.3662109375t-0.5859375,0.32958984375t-0.32958984375,0.18310546875q-0.1953125,0.1220703125-0.57373046875,0.37841796875t-0.7080078125,0.4638671875t-0.62255859375,0.37841796875q-0.537109375,0.2685546875-0.9033203125,0.390625l-0.1953125,0q-0.244140625,0.244140625-0.537109375,0.390625q-0.1708984375,0.09765625-0.2197265625,0.146484375t-0.06103515625,0.15869140625t-0.08544921875,0.20751953125q0.3173828125-0.146484375,2.16064453125-0.927734375t2.74658203125-1.318359375q0.439453125-0.341796875,1.2939453125-0.8056640625l0-0.1953125q0-0.09765625-0.0244140625-0.341796875t-0.0244140625-0.3662109375z M47.7880859375,58.369140625l0.1220703125-0.09765625q-0.1220703125,0.048828125-0.1220703125,0.09765625q0.2197265625-0.244140625,0.7080078125-0.74462890625t0.7080078125-0.74462890625q-0.29296875,0.2197265625-0.89111328125,0.72021484375t-0.91552734375,0.72021484375l0.1953125,0q0.146484375,0,0.1953125,0.048828125z M48.69140625,56.6845703125q0.0732421875-0.0732421875,0.341796875-0.23193359375t0.4150390625-0.30517578125t0.146484375-0.3173828125q-0.29296875,0.244140625-0.9033203125,0.8544921875z M43.857421875,58.4423828125l0.390625-0.2685546875q-0.1220703125,0-0.390625,0.2685546875q3.125-1.953125,3.9306640625-2.4169921875q0.1708984375-0.09765625,0.537109375-0.30517578125t0.6591796875-0.35400390625t0.5615234375-0.244140625q0.29296875-0.1220703125,0.29296875-0.78125l0-0.5126953125q-0.09765625-0.390625-0.09765625-0.9521484375q0-0.390625,0.048828125-0.48828125q-0.09765625-0.244140625-0.09765625-1.0009765625q-1.46484375,1.025390625-5.43212890625,3.2958984375t-5.87158203125,3.80859375q1.0498046875-0.537109375,2.099609375-1.123046875t2.30712890625-1.3427734375t1.9775390625-1.1962890625t2.2705078125-1.42822265625t2.01416015625-1.28173828125q0.09765625-0.048828125,0.1953125-0.048828125q0.146484375,0,0.146484375,0.2685546875q0,0.29296875-0.146484375,0.5859375q-0.5615234375,0.6591796875-1.708984375,1.2939453125q-0.7080078125,0.4638671875-2.06298828125,1.28173828125t-2.44140625,1.52587890625t-1.98974609375,1.416015625l0.244140625,0l0.4638671875,0q0.1953125-0.1220703125,0.57373046875-0.40283203125t0.57373046875-0.40283203125q0.390625-0.29296875,1.15966796875-0.8544921875t1.18408203125-0.8544921875q0.1708984375-0.1220703125,0.7568359375-0.52490234375t0.86669921875-0.5859375t0.74462890625-0.45166015625t0.87890625-0.439453125q0.29296875-0.09765625,0.5615234375-0.09765625q0.3662109375,0,0.48828125,0.1953125q0.09765625,0.1708984375-0.341796875,0.52490234375t-1.03759765625,0.72021484375t-0.67138671875,0.4150390625q-2.6611328125,1.8310546875-3.6376953125,2.7587890625z M45.908203125,47.333984375q0.048828125-0.1953125,0.25634765625-0.47607421875t0.52490234375-0.64697265625t0.4150390625-0.48828125q-0.1708984375,0.09765625-0.54931640625,0.30517578125t-0.54931640625,0.30517578125q-0.048828125,0.048828125-0.06103515625,0.50048828125t-0.03662109375,0.50048828125z M46.0546875,45.33203125q0.341796875-0.244140625,0.390625-0.29296875l-0.09765625,0q-0.1953125,0-0.29296875-0.09765625l0,0.146484375l0,0.244140625z M45.76171875,48.7744140625l0-0.048828125l0,0.048828125q0-0.0732421875,0.81787109375-0.5615234375t1.11083984375-0.634765625q0.048828125-0.048828125,0.30517578125-0.18310546875t0.50048828125-0.29296875t0.50048828125-0.32958984375t0.4150390625-0.32958984375t0.13427734375-0.25634765625q-0.146484375,0.0732421875-0.927734375,0.52490234375t-1.220703125,0.67138671875q-0.537109375,0.341796875-1.2939453125,0.7568359375q-0.1220703125,0.0732421875-0.15869140625,0.10986328125t-0.0732421875,0.09765625t-0.048828125,0.08544921875t-0.0244140625,0.13427734375t-0.03662109375,0.20751953125z M45.4931640625,50.1416015625l0,0.048828125l0-0.048828125l0,0.1953125l3.0029296875-2.5634765625q-0.3173828125,0.1953125-0.96435546875,0.57373046875t-0.98876953125,0.57373046875l-0.8544921875,0.5126953125q-0.0732421875,0.0244140625-0.10986328125,0.15869140625t-0.048828125,0.3173828125t-0.03662109375,0.23193359375z M43.3447265625,54.169921875l0.09765625-0.048828125l-0.09765625,0.048828125q-0.0244140625,0.0244140625-0.048828125,0.08544921875t-0.048828125,0.08544921875l0.8544921875-0.5126953125q-0.5615234375,0.2197265625-0.7568359375,0.341796875z M39.1943359375,55.390625l-0.048828125,0.09765625q0.048828125-0.048828125,0.048828125-0.09765625q-0.09765625,0.09765625-0.2685546875,0.29296875t-0.2685546875,0.29296875q0.1708984375-0.09765625,0.54931640625-0.29296875t0.54931640625-0.29296875q0-0.1220703125-0.244140625-0.1220703125q-0.0732421875,0-0.3173828125,0.1220703125z M39.70703125,55.927734375l-0.5126953125,0.244140625l0.6591796875-0.29296875q-0.048828125,0-0.146484375,0.048828125q-0.048828125,0.0244140625-0.341796875,0.18310546875t-0.3662109375,0.20751953125t-0.341796875,0.1953125t-0.35400390625,0.20751953125t-0.3173828125,0.1953125t-0.341796875,0.2197265625t-0.29296875,0.23193359375t-0.30517578125,0.25634765625t-0.2685546875,0.25634765625t-0.2685546875,0.29296875q1.3916015625-0.7080078125,6.15234375-3.5400390625q-0.1708984375,0.0732421875-0.64697265625,0.20751953125t-0.72021484375,0.28076171875q-0.341796875,0.146484375-0.927734375,0.45166015625t-0.6591796875,0.35400390625z M38.33984375,57.880859375l-0.1953125,0.146484375q0.09765625-0.048828125,0.1953125-0.146484375l-0.732421875,0.439453125q0.1220703125,0.0244140625,0.23193359375-0.0244140625t0.28076171875-0.2197265625t0.2197265625-0.1953125z M45.6884765625,51.435546875l0.7568359375-0.4638671875q-0.2685546875,0.1708984375-0.7568359375,0.4638671875q2.5146484375-1.4404296875,3.466796875-2.099609375q-0.5859375,0.341796875-1.7333984375,1.0498046875t-1.7333984375,1.0498046875z M45.6396484375,50.8740234375q1.0498046875-0.634765625,1.0498046875-0.68359375q-0.7568359375,0.439453125-1.0498046875,0.68359375q2.44140625-1.46484375,3.3203125-1.953125q0.09765625-0.0732421875,0.244140625-0.15869140625t0.2197265625-0.13427734375t0.13427734375-0.146484375t0.08544921875-0.244140625l0-0.5615234375l0-0.244140625q-0.6591796875,0.5859375-4.00390625,3.4423828125z M48.59375,44.8193359375l-0.048828125,0l0.048828125,0.0732421875q0.048828125,0,0.048828125-0.0732421875l-0.048828125,0q-0.048828125,0.0244140625-0.10986328125,0.06103515625t-0.08544921875,0.048828125t-0.06103515625,0.0244140625t-0.048828125,0.03662109375t-0.03662109375,0.048828125l-0.06103515625,0.06103515625t-0.06103515625,0.0732421875l-0.0732421875,0.10986328125q-0.09765625,0.1220703125-0.28076171875,0.35400390625t-0.28076171875,0.35400390625q-0.1708984375,0.2197265625-0.52490234375,0.69580078125t-0.52490234375,0.69580078125q0.3662109375-0.1953125,0.78125-0.439453125t0.927734375-0.537109375t0.8056640625-0.4638671875q0.0732421875-0.048828125,0.244140625-0.15869140625t0.244140625-0.15869140625q0.09765625-0.048828125,0.09765625-0.146484375l0-0.1953125l0-0.09765625q-0.048828125-0.29296875-0.09765625-0.29296875l-0.244140625,0l-0.29296875,0q-0.1708984375,0-0.3173828125-0.0732421875z M37.1923828125,55.48828125l-0.146484375,0.09765625q0-0.048828125,0.146484375-0.09765625q-0.0244140625,0-0.09765625-0.0244140625t-0.09765625-0.0244140625q-0.2685546875,0-0.537109375,0.15869140625t-0.57373046875,0.439453125t-0.42724609375,0.35400390625q-0.4638671875,0.341796875-1.45263671875,0.96435546875t-1.45263671875,0.96435546875q0.09765625,0.0732421875,0.9521484375-0.48828125q0.7080078125-0.439453125,1.1474609375-0.7568359375q0.439453125-0.29296875,1.28173828125-0.8056640625t1.25732421875-0.78125z M34.04296875,55.390625l-0.048828125,0l0.048828125,0q-0.1953125,0.09765625-0.390625,0.09765625q-0.0732421875,0.2685546875-0.341796875,0.537109375q-0.29296875,0.341796875-0.9033203125,0.9521484375q1.6357421875-1.07421875,2.587890625-1.5380859375q-0.09765625-0.048828125-0.244140625-0.048828125l-0.5126953125,0l-0.1953125,0z M30.087890625,58.271484375l0.6103515625-0.48828125q-0.048828125,0.0244140625-0.10986328125,0.0732421875t-0.20751953125,0.15869140625t-0.23193359375,0.18310546875t-0.06103515625,0.0732421875q1.9775390625-1.4892578125,2.8564453125-2.587890625q-2.4169921875,1.5380859375-4.00390625,2.490234375q0.7568359375,0,1.1474609375,0.09765625z M25.205078125,58.5888671875l0.048828125,0l-0.048828125,0q0.830078125-0.48828125,3.0517578125-2.2705078125q-2.392578125,1.7333984375-3.1982421875,2.1728515625q0.048828125,0.0244140625,0.0732421875,0.048828125t0.0732421875,0.048828125z M19.9560546875,58.3203125l0.048828125,0l-0.048828125,0q0.1953125-0.146484375,0.732421875-0.3662109375t0.6103515625-0.2685546875q0.4638671875-0.29296875,2.197265625-1.2939453125q0.5615234375-0.29296875,1.6357421875-0.927734375t1.611328125-0.927734375q-3.3447265625,1.6845703125-4.19921875,2.197265625q-0.29296875,0.146484375-0.8544921875,0.50048828125t-0.830078125,0.50048828125q-0.5859375,0.341796875-0.7568359375,0.48828125l-0.244140625,0.09765625l0.09765625,0z M23.544921875,53.1689453125l0.9033203125-0.68359375q-0.9033203125,0.634765625-0.9033203125,0.68359375q2.63671875-1.9287109375,4.39453125-2.9296875q0.6591796875-0.3662109375,1.708984375-1.0986328125q0.2685546875-0.2685546875,0.390625-0.2685546875q0.0732421875,0.048828125,0.1220703125,0.048828125q0-0.0732421875,0.0244140625-0.1953125t0.0244140625-0.1953125q-0.1220703125,0.1708984375-0.5615234375,0.4150390625t-0.48828125,0.29296875q-0.1708984375,0.09765625-0.52490234375,0.3173828125t-0.52490234375,0.3173828125q-0.3662109375,0.2197265625-1.0498046875,0.68359375t-1.0498046875,0.68359375q-0.3173828125,0.2197265625-1.0009765625,0.67138671875t-1.0009765625,0.67138671875q-0.9033203125,0.6103515625-1.0009765625,0.8056640625q0.1953125-0.048828125,0.537109375-0.2197265625z M30.7470703125,55.2197265625q-0.048828125,0-0.10986328125-0.0244140625t-0.08544921875-0.0244140625q-0.048828125,0-0.08544921875,0.03662109375l-0.10986328125,0.10986328125t-0.146484375,0.1220703125q-0.146484375,0.09765625-0.42724609375,0.3173828125t-0.42724609375,0.3173828125q-0.1953125,0.146484375-0.59814453125,0.47607421875t-0.59814453125,0.47607421875q0.1708984375-0.09765625,1.2451171875-0.7080078125t1.6357421875-0.9765625q-0.048828125,0-0.29296875-0.1220703125z M32.08984375,55.439453125q-0.29296875,0.0732421875-0.6591796875,0.3173828125t-0.79345703125,0.59814453125t-0.59814453125,0.47607421875q-0.29296875,0.1953125-1.8310546875,1.2939453125q0.4638671875-0.29296875,1.89208984375-1.18408203125t2.20947265625-1.40380859375q-0.1220703125,0-0.2197265625-0.09765625z M30.2587890625,54.0234375l0-0.048828125l0,0.048828125l0-0.146484375q-0.09765625,0.09765625-0.1708984375,0.09765625q0.048828125,0.048828125,0.1708984375,0.048828125z M30.1611328125,47.724609375l-0.2685546875,0.1953125q0.2685546875-0.146484375,0.2685546875-0.1953125q-0.341796875,0.244140625-1.01318359375,0.7568359375t-1.03759765625,0.7568359375l0.439453125-0.29296875q0.439453125-0.3173828125,0.830078125-0.537109375t0.6103515625-0.2197265625q0.0732421875,0,0.1708984375,0.09765625l0-0.5615234375z M29.892578125,49.3359375l-0.09765625-0.09765625q0-0.0244140625,0.1953125,0.1953125z M30.1611328125,50.2880859375l-0.5126953125,0.341796875q0.4638671875-0.29296875,0.5126953125-0.341796875q-0.2685546875,0.1708984375-1.6357421875,1.08642578125t-1.79443359375,1.20849609375t-1.57470703125,1.08642578125t-1.77001953125,1.28173828125t-1.4892578125,1.18408203125t-1.59912109375,1.35498046875q2.7099609375-1.708984375,8.056640625-4.3212890625q0.146484375-0.0732421875,0.8056640625-0.4150390625t1.0498046875-0.4638671875q0-0.048828125,0.0244140625-0.15869140625t0.0244140625-0.15869140625q0-0.1953125-0.08544921875-0.64697265625t-0.08544921875-0.64697265625q0-0.1708984375,0.0732421875-0.390625z M24.3994140625,58.3203125l0.244140625-0.146484375q-0.09765625,0-0.244140625,0.146484375q0.6103515625-0.3173828125,1.66015625-1.0498046875q-0.2685546875,0.1708984375-0.81787109375,0.52490234375t-0.84228515625,0.52490234375z M22.2998046875,58.271484375q0.2685546875,0,0.62255859375-0.1953125t0.78125-0.5126953125t0.54931640625-0.390625q0.29296875-0.1953125,0.9033203125-0.57373046875t0.9033203125-0.57373046875q-2.0751953125,1.1962890625-2.1484375,1.2451171875q-0.1220703125,0.0732421875-0.48828125,0.341796875t-0.68359375,0.4638671875t-0.439453125,0.1953125z M27.939453125,57.685546875q-0.537109375,0.3662109375-1.3427734375,0.8056640625q0.2197265625-0.048828125,0.42724609375-0.1708984375t0.5126953125-0.341796875t0.40283203125-0.29296875z M26.3037109375,48.6279296875q0.09765625-0.0732421875,0.5859375-0.32958984375t1.0498046875-0.5615234375t1.123046875-0.634765625t0.89111328125-0.6103515625t0.25634765625-0.40283203125q-0.6591796875,0.439453125-1.96533203125,1.28173828125t-1.94091796875,1.25732421875z M30.4052734375,43.18359375l0,0.048828125l0-0.048828125l-0.09765625,0.09765625q0.048828125,0,0.09765625,0.048828125l0-0.146484375z M30.3076171875,41.03515625l-0.3173828125,0.244140625q0.3173828125-0.1953125,0.3173828125-0.244140625q-0.4150390625,0.3173828125-2.197265625,1.57470703125t-2.7099609375,2.01416015625q-0.09765625,0.0732421875-0.42724609375,0.35400390625t-0.47607421875,0.4150390625t-0.390625,0.37841796875t-0.4150390625,0.4638671875t-0.29296875,0.439453125q1.123046875-0.87890625,4.541015625-2.783203125q0.244140625-0.146484375,0.7568359375-0.42724609375t0.7568359375-0.42724609375q0.9033203125-0.3662109375,0.9521484375-0.5615234375q-0.048828125-0.2197265625-0.06103515625-0.7568359375t-0.03662109375-0.68359375z M23.10546875,47.7734375l0.146484375-0.048828125q-0.146484375,0-0.146484375,0.048828125q0.29296875-0.0244140625,0.68359375-0.18310546875t0.5615234375-0.25634765625t0.68359375-0.439453125l0.5126953125-0.3173828125q2.5634765625-1.7578125,3.7109375-2.63671875q-2.7587890625,1.806640625-4.7119140625,2.83203125q-0.146484375,0.0732421875-0.537109375,0.244140625t-0.62255859375,0.341796875t-0.28076171875,0.4150390625z M22.958984375,46.4306640625l0.09765625-0.146484375l-0.09765625,0.146484375q0.3173828125-0.5126953125,1.3427734375-1.4404296875q-0.09765625,0.048828125-0.439453125,0.13427734375t-0.59814453125,0.1953125t-0.30517578125,0.20751953125l0,0.146484375q0,0.0732421875-0.0244140625,0.25634765625t-0.0244140625,0.25634765625q0,0.146484375,0.048828125,0.244140625z M23.203125,49.23828125q0.9033203125-0.8056640625,2.8076171875-2.4169921875q-1.611328125,1.0498046875-2.4169921875,1.318359375q-0.09765625,0.048828125-0.20751953125,0.0732421875t-0.146484375,0.048828125t-0.06103515625,0.08544921875t-0.0244140625,0.18310546875q0.048828125,0.09765625,0.048828125,0.341796875l0,0.3662109375z M30.3564453125,43.76953125q-5.5908203125,4.7607421875-6.9091796875,5.908203125q2.4169921875-1.611328125,5.4443359375-3.3935546875q0.1953125-0.1220703125,0.59814453125-0.37841796875t0.59814453125-0.37841796875q0.0732421875-0.048828125,0.09765625-0.28076171875t0.0732421875-0.30517578125q0.048828125-0.146484375,0.06103515625-0.6103515625t0.03662109375-0.5615234375z M30.2099609375,39.7412109375q0.0244140625,0.048828125-0.7568359375,0.62255859375t-1.66015625,1.1962890625t-0.9521484375,0.67138671875q-0.390625,0.2685546875-3.4912109375,2.587890625q1.123046875-0.341796875,3.2470703125-1.7333984375q0.5615234375-0.390625,1.50146484375-1.0986328125t1.20849609375-0.9033203125q0.927734375-0.5615234375,0.9521484375-0.7568359375q0-0.0732421875-0.0244140625-0.29296875t-0.0244140625-0.29296875z M31.796875,26.142578125l0.048828125,0l-0.048828125,0q-0.1708984375-0.0244140625-0.439453125,0.13427734375t-0.59814453125,0.45166015625t-0.40283203125,0.341796875q0.8544921875-0.5126953125,1.6357421875-0.927734375q0-0.0732421875-0.09765625-0.0732421875q-0.048828125,0.0244140625-0.09765625,0.0732421875z M30.7958984375,26.0693359375l-0.09765625,0.0732421875l0.09765625-0.0732421875q-1.1474609375,0.634765625-2.40478515625,1.4404296875t-2.79541015625,1.85546875t-2.34375,1.5625l-0.1220703125,0.06103515625t-0.10986328125,0.048828125t-0.0732421875,0.03662109375t-0.048828125,0.03662109375t-0.0244140625,0.03662109375t-0.01220703125,0.0732421875q0,0.1220703125,0.048828125,0.2197265625q0.1953125,0.390625,0.1953125,0.68359375q0.048828125,0.146484375,0.048828125,0.4638671875q0,0.2197265625-0.048828125,0.7080078125t-0.048828125,0.68359375q1.708984375-1.3427734375,5.13916015625-3.99169921875t5.11474609375-3.96728515625q-1.2451171875,0.4638671875-3.7109375,2.099609375q-0.7568359375,0.5126953125-2.294921875,1.5625t-2.294921875,1.5869140625q-0.0244140625,0.0244140625-0.25634765625,0.20751953125t-0.341796875,0.25634765625t-0.32958984375,0.20751953125t-0.390625,0.1953125t-0.341796875,0.08544921875q-0.29296875,0-0.29296875-0.09765625q0-0.1220703125,0.2197265625-0.35400390625t0.3173828125-0.28076171875q5.810546875-4.296875,7.3486328125-5.46875q-0.048828125,0.048828125-0.146484375,0.048828125z M37.55859375,28.486328125l0,0.048828125l0-0.048828125z M37.65625,28.583984375l-0.048828125-0.048828125q0.048828125,0,0.048828125,0.048828125z M35.99609375,26.826171875l0,0.048828125l0-0.048828125q0-0.0732421875-1.46484375,0.68359375t-1.7333984375,0.927734375q-2.24609375,1.2451171875-4.736328125,2.880859375q-3.2958984375,2.1484375-4.2724609375,2.8076171875q-0.1220703125,0.0732421875-0.341796875,0.23193359375t-0.341796875,0.23193359375q0,0.048828125,0.0244140625,0.20751953125t0.0244140625,0.23193359375l0,0.09765625q0.09765625,0.29296875,0.09765625,0.6103515625q0,0.5615234375-0.09765625,0.9521484375q2.2705078125-1.5625,4.6875-3.0517578125q1.07421875-0.6591796875,2.3681640625-1.611328125q0.2197265625-0.146484375,0.30517578125-0.634765625t0.28076171875-0.6591796875q-0.048828125-0.09765625-0.048828125-0.29296875q0-0.146484375,0.06103515625-0.2685546875t0.20751953125-0.23193359375t0.23193359375-0.1708984375t0.28076171875-0.15869140625t0.2197265625-0.1220703125q0.4150390625-0.3173828125,0.7080078125-0.3173828125q0.146484375,0,0.244140625,0.048828125q0.146484375-0.0244140625,0.37841796875-0.18310546875t0.32958984375-0.20751953125t0.244140625-0.048828125q0.244140625,0,0.48828125,0.244140625q0.1220703125-0.0244140625,0.25634765625-0.1220703125t0.30517578125-0.25634765625t0.244140625-0.20751953125q0.1220703125-0.1220703125,0.40283203125-0.37841796875t0.40283203125-0.37841796875t0.15869140625-0.244140625t0.048828125-0.29296875t0.03662109375-0.3173828125z M23.154296875,39.7412109375q1.0986328125-0.7568359375,3.271484375-2.35595703125t3.271484375-2.35595703125q-1.953125,1.123046875-3.3935546875,2.05078125q-0.830078125,0.48828125-2.1484375,1.3916015625q-1.025390625,0.5126953125-1.0986328125,0.7080078125q0.09765625,0.29296875,0.09765625,0.5615234375z M23.10546875,37.32421875q0.048828125-0.048828125,0.048828125-0.09765625q-0.048828125,0.048828125-0.048828125,0.09765625z M26.0595703125,36.5185546875l0.29296875-0.1953125q0-0.0244140625-0.18310546875,0.09765625t-0.37841796875,0.244140625l-0.1953125,0.1220703125q0.1220703125-0.0732421875,0.4638671875-0.2685546875q0.341796875-0.2197265625,1.13525390625-0.6591796875t1.37939453125-0.8056640625t1.025390625-0.78125q-0.6103515625,0.1953125-2.5390625,1.3671875q-0.439453125,0.2685546875-1.28173828125,0.81787109375t-0.93994140625,0.62255859375q-0.048828125,0.0244140625-0.537109375,0.3173828125t-0.87890625,0.5615234375t-0.3662109375,0.3662109375q0.927734375-0.634765625,3.0029296875-1.806640625z M23.154296875,41.9384765625l0,0.146484375q0.634765625-0.5126953125,2.13623046875-1.6357421875t2.5634765625-2.01416015625t1.94091796875-1.84326171875q-0.68359375,0.390625-2.06298828125,1.1962890625t-2.08740234375,1.1962890625q-1.2939453125,0.7080078125-2.1484375,1.2451171875q-0.341796875,0.1953125-0.341796875,0.6591796875q0,0.1220703125,0.0244140625,0.35400390625t0.0244140625,0.32958984375q0,0.2685546875-0.048828125,0.3662109375z M30.4052734375,36.640625l-0.244140625,0.29296875l0.244140625-0.29296875q-0.4638671875,0.6103515625-1.18408203125,1.26953125t-1.15966796875,1.01318359375t-1.50146484375,1.13525390625t-1.25732421875,0.927734375q0.5615234375-0.341796875,1.69677734375-0.9765625t1.69677734375-0.9765625q0.2197265625-0.1220703125,0.69580078125-0.40283203125t0.69580078125-0.40283203125q0.09765625-0.09765625,0.20751953125-0.6103515625t0.10986328125-0.830078125l0-0.146484375z M30.1611328125,35.419921875l0,0.048828125l0-0.048828125q-0.0244140625-0.048828125-0.0732421875-0.09765625q-0.2685546875,0.1708984375-1.5869140625,1.13525390625t-2.05078125,1.47705078125q0.3662109375-0.1953125,1.0498046875-0.59814453125t1.0498046875-0.59814453125q0.68359375-0.439453125,1.2451171875-0.7080078125q0.0244140625-0.0244140625,0.0732421875-0.048828125q0.244140625-0.146484375,0.2685546875-0.29296875l0-0.09765625z M30.1611328125,33.22265625q0,0.0732421875-0.42724609375,0.32958984375t-0.9765625,0.54931640625t-0.59814453125,0.3173828125q1.1962890625-0.68359375,1.6357421875-0.68359375q0.1953125,0,0.29296875,0.048828125q0-0.341796875,0.0732421875-0.5615234375z M37.802734375,28.583984375l-0.09765625,0l0.09765625,0z M34.5068359375,26.0693359375q-0.2197265625,0-0.37841796875,0.048828125t-0.244140625,0.09765625t-0.28076171875,0.20751953125t-0.341796875,0.25634765625q-1.1962890625,0.9521484375-2.2216796875,1.708984375q-0.5859375,0.4638671875-1.72119140625,1.33056640625t-1.72119140625,1.30615234375q4.8828125-3.0517578125,6.9580078125-4.1015625q0.8544921875-0.4638671875,1.3916015625-0.634765625q0.146484375-0.0732421875,0.146484375-0.09765625q0-0.09765625-0.732421875-0.2197265625q-0.1953125,0.09765625-0.8544921875,0.09765625z M29.501953125,26.0693359375l0.048828125,0l-0.048828125,0q-0.146484375,0-0.390625-0.048828125t-0.3662109375-0.048828125q-0.1708984375,0-0.439453125,0.1708984375q-0.4150390625,0.341796875-1.26953125,0.9521484375t-1.2939453125,0.927734375q-1.26953125,0.9521484375-2.294921875,1.85546875l-0.244140625,0.2197265625q-0.2685546875,0.1953125-0.45166015625,0.37841796875t-0.15869140625,0.25634765625q1.1962890625-0.7080078125,3.6376953125-2.34375t3.759765625-2.4169921875l-0.048828125,0q-0.0732421875,0-0.2197265625,0.048828125t-0.2197265625,0.048828125z M17.9541015625,28.2421875q0.2197265625-0.3662109375,0.67138671875-1.0498046875t0.67138671875-1.0498046875q-0.0244140625,0.0244140625-0.45166015625,0.23193359375t-0.6591796875,0.37841796875t-0.28076171875,0.3173828125q0.09765625,0.390625,0.09765625,0.6591796875q0,0.09765625-0.0244140625,0.2685546875t-0.0244140625,0.244140625z M20.4931640625,25.8740234375q-0.1220703125,0.0732421875-0.2685546875,0.09765625t-0.23193359375,0.0732421875t-0.18310546875,0.1953125q-0.146484375,0.2685546875-0.6103515625,0.9521484375q-0.341796875,0.5615234375-0.9521484375,1.4404296875q0.4638671875-0.29296875,1.953125-1.123046875t2.24609375-1.318359375q-0.2685546875,0-0.439453125-0.1708984375q-0.4150390625,0.048828125-0.4638671875,0.048828125q-0.146484375,0-0.52490234375-0.10986328125t-0.52490234375-0.08544921875z M24.0576171875,28.73046875l-0.4638671875,0.341796875q0.2197265625-0.146484375,0.4638671875-0.341796875q-0.5859375,0.439453125-1.416015625,0.9521484375q-0.29296875,0.244140625-0.29296875,0.29296875q0,0.09765625,0.048828125,0.244140625q0.2197265625-0.244140625,0.48828125-0.48828125t0.64697265625-0.5615234375t0.52490234375-0.439453125z M23.154296875,42.939453125l0,0.09765625q0.2685546875-0.146484375,1.2939453125-0.67138671875t1.4892578125-0.78125t1.26953125-0.72021484375t1.42822265625-0.91552734375t1.15966796875-0.96435546875q-3.2470703125,1.85546875-3.3935546875,1.953125q-0.5126953125,0.2685546875-2.34375,1.3427734375q-0.0244140625,0.0244140625-0.1953125,0.09765625t-0.244140625,0.1220703125t-0.1953125,0.1220703125t-0.18310546875,0.15869140625t-0.08544921875,0.15869140625z M25.7421875,42.4267578125q-1.513671875,0.87890625-1.904296875,1.0986328125q-0.0732421875,0.048828125-0.244140625,0.13427734375t-0.1953125,0.1220703125t-0.09765625,0.1220703125t-0.08544921875,0.18310546875t-0.01220703125,0.29296875q0.4150390625-0.3173828125,1.25732421875-0.9765625t1.28173828125-0.9765625z M23.203125,51.728515625l0,0.1953125q2.1484375-1.3671875,4.345703125-2.9541015625q0.3173828125-0.1953125,0.87890625-0.59814453125t0.87890625-0.59814453125q0.048828125-0.0244140625,0.23193359375-0.15869140625t0.28076171875-0.2197265625t0.1953125-0.2197265625t0.0732421875-0.25634765625q-2.685546875,1.611328125-4.0283203125,2.3681640625q-0.4150390625,0.2197265625-1.20849609375,0.69580078125t-1.20849609375,0.69580078125q-0.439453125,0.2685546875-0.439453125,0.4638671875l0,0.341796875l0,0.244140625z M19.19921875,55.537109375l-1.0498046875,0l-0.341796875,0q0.09765625,0.390625,0.09765625,0.634765625q0,0.4638671875-0.09765625,0.9521484375q1.0498046875-0.537109375,2.392578125-1.5380859375q-0.048828125,0-0.1220703125,0.0244140625t-0.1220703125,0.0244140625q-0.1220703125,0-0.37841796875-0.048828125t-0.37841796875-0.048828125z M17.7099609375,58.5400390625l0.048828125,0l-0.048828125,0q0.09765625-0.048828125,0.48828125-0.048828125q0.3662109375,0,0.4638671875,0.09765625q0.1220703125-0.244140625,0.1953125-0.3173828125q0.1953125-0.244140625,0.5859375-0.634765625q0.7080078125-0.7080078125,2.5146484375-2.099609375q3.3203125-2.5634765625,8.0810546875-5.76171875q-0.390625,0.0732421875-0.72021484375,0.23193359375t-0.91552734375,0.59814453125t-0.6103515625,0.4638671875q-0.1708984375,0.09765625-1.7822265625,1.26953125q-0.2685546875,0.1708984375-1.25732421875,0.7080078125t-1.50146484375,0.927734375q-0.2197265625,0.146484375-0.7568359375,0.6591796875t-0.9033203125,0.7080078125q-0.9033203125,0.439453125-1.1474609375,0.634765625q-0.146484375,0.09765625-0.45166015625,0.30517578125t-0.45166015625,0.30517578125q-1.123046875,0.78125-1.6357421875,1.0498046875q-0.1953125,0.146484375-0.1953125,0.9033203125z M35.703125,55.5859375l-0.6103515625,0.341796875q0.09765625,0,0.6103515625-0.341796875q-1.3916015625,0.7568359375-4.39453125,2.63671875q0.09765625-0.0244140625,0.4150390625-0.048828125t0.48828125-0.146484375q0.2197265625-0.146484375,0.64697265625-0.45166015625t0.64697265625-0.45166015625q1.3916015625-0.9033203125,2.197265625-1.5380859375z M35.60546875,58.4912109375l-0.048828125,0l0.048828125,0q0.09765625-0.048828125,0.18310546875-0.146484375t0.1708984375-0.25634765625t0.13427734375-0.20751953125q0.09765625-0.146484375,0.7568359375-0.8056640625q0.3173828125-0.3662109375,0.9521484375-0.96435546875t0.8056640625-0.76904296875q-0.146484375-0.09765625-0.67138671875,0.1953125t-1.220703125,0.79345703125t-0.72021484375,0.50048828125q-1.953125,1.220703125-2.685546875,1.708984375q0.1708984375,0,0.4638671875-0.048828125t0.4638671875-0.048828125q0.29296875,0.09765625,0.5615234375,0.09765625l0.09765625,0q0.1953125,0,0.244140625,0.048828125q0.146484375-0.09765625,0.4638671875-0.09765625z M39.560546875,58.5400390625q0.0732421875-0.0244140625,0.37841796875-0.06103515625t0.45166015625-0.15869140625q0.1220703125-0.09765625,0.35400390625-0.2685546875t0.35400390625-0.2685546875q0.9033203125-0.6591796875,1.904296875-1.2451171875q3.7353515625-2.3193359375,4.736328125-3.0029296875q-4.833984375,2.978515625-8.3984375,5.0048828125l0.2197265625,0z M42.6611328125,58.369140625q0.048828125,0,0.1220703125-0.06103515625t0.0732421875-0.08544921875q-0.048828125,0.048828125-0.1953125,0.146484375q0.3662109375,0.1220703125,0.390625,0.1220703125q0.0732421875,0,0.244140625-0.1708984375q0.537109375-0.6103515625,1.1962890625-1.0498046875q1.0498046875-0.8544921875,3.466796875-2.490234375q-0.830078125,0.4638671875-1.708984375,1.06201171875t-1.953125,1.3671875t-1.6357421875,1.15966796875z M45.859375,58.4423828125l0.048828125-0.0732421875l-0.048828125,0.0732421875q0.0732421875-0.0732421875,0.2197265625-0.13427734375t0.2197265625-0.13427734375t0.8056640625-0.68359375q0.6591796875-0.6591796875,1.3916015625-1.318359375q-1.1474609375,0.6591796875-3.5888671875,2.197265625l0.146484375,0q0.1220703125,0,0.4150390625,0.03662109375t0.390625,0.03662109375z M49.0087890625,57.978515625l0.048828125-0.048828125l-0.09765625,0.09765625l0.048828125-0.048828125q0.341796875-0.1953125,0.4150390625-0.29296875t0.0732421875-0.4150390625q-0.6103515625,0.6103515625-0.9033203125,0.9521484375q0.0732421875-0.048828125,0.20751953125-0.1220703125t0.20751953125-0.1220703125z M97.26904296875,41.9873046875l0.048828125,0.048828125l-0.048828125-0.048828125l0.048828125,0.09765625q0,0.1708984375-0.4638671875,0.48828125q-0.244140625,0.1708984375-0.244140625,0.3173828125l0,0.244140625l0,0.146484375q0,0.7080078125-0.244140625,1.1962890625q-0.048828125,0.048828125-0.048828125,0.244140625l0,0.3173828125q0,0.146484375-0.048828125,0.1953125q-0.1220703125,0.1220703125-0.1220703125,0.244140625l0,0.1953125l0,0.048828125q0,0.048828125,0.0244140625,0.15869140625t0.0244140625,0.15869140625q0,0.5615234375-0.29296875,1.5869140625q-0.0244140625,0.1220703125-0.09765625,0.5126953125t-0.18310546875,0.64697265625t-0.30517578125,0.40283203125q-0.341796875,0.6591796875-0.6103515625,0.830078125q0,0.1708984375-0.1953125,0.7568359375q-0.0244140625,0.146484375-0.1708984375,0.439453125t-0.1708984375,0.4638671875q0,0.1708984375-0.18310546875,0.341796875t-0.23193359375,0.2685546875q-0.048828125,0.1708984375-0.244140625,0.390625t-0.244140625,0.29296875q-0.1708984375,0.4150390625-0.6103515625,0.7568359375q-0.048828125,0.048828125-0.2197265625,0.4150390625t-0.439453125,0.48828125q-0.048828125,0.048828125-0.68359375,0.29296875q-0.1953125,0.1220703125-0.1953125,0.244140625q0,0.0244140625,0.0244140625,0.1220703125t0.0244140625,0.146484375q0,0.09765625-0.048828125,0.1953125q-0.09765625,0.244140625-0.47607421875,0.537109375t-0.47607421875,0.4638671875q-0.1220703125,0.2197265625-0.40283203125,0.62255859375t-0.35400390625,0.52490234375q-0.9765625,1.3427734375-2.001953125,1.3427734375q-0.146484375,0-0.439453125-0.09765625q-0.6103515625-0.146484375-1.1474609375-0.8056640625q-0.146484375,0.09765625-0.37841796875,0.29296875t-0.28076171875,0.2197265625q-0.244140625,0.5859375-0.7568359375,0.5859375q-0.244140625,0-0.48828125-0.244140625q-0.146484375-0.146484375-0.2685546875-0.146484375q-0.0732421875,0-0.13427734375,0.06103515625t-0.15869140625,0.18310546875t-0.1953125,0.1953125q-0.3662109375,0.2685546875-0.6103515625,0.2685546875q-0.1953125,0-0.29296875-0.048828125q-0.439453125,0.146484375-0.537109375,0.146484375q-0.341796875,0-0.4638671875-0.244140625l-0.146484375,0q-0.0732421875,0-0.2197265625,0.048828125t-0.2197265625,0.048828125q-0.048828125,0-0.1220703125-0.0244140625t-0.09765625-0.0244140625q-0.048828125,0-0.18310546875,0.0244140625t-0.20751953125,0.0244140625t-0.1953125-0.0244140625t-0.1953125-0.0244140625q-0.2685546875-0.048828125-0.91552734375,0.1220703125t-0.89111328125,0.1708984375q-0.1953125,0-0.29296875-0.048828125t-0.3173828125-0.048828125q-0.1220703125,0-0.37841796875,0.048828125t-0.40283203125,0.048828125q-0.1220703125,0-0.4150390625-0.09765625q-0.1953125,0.09765625-0.439453125,0.09765625q-0.09765625,0-0.2685546875-0.0244140625t-0.244140625-0.0244140625q-0.1220703125,0-0.3662109375-0.0244140625t-0.3662109375-0.0244140625q-0.09765625,0-0.390625-0.09765625t-0.4150390625-0.09765625q-0.1953125-0.048828125-0.6103515625-0.048828125l-0.1953125,0q-0.1708984375,0-0.537109375,0.048828125t-0.5615234375,0.048828125q-0.0732421875,0-0.1953125-0.0244140625t-0.1953125-0.0244140625l-0.3662109375,0l-0.68359375,0q-0.048828125,0.048828125-0.2197265625,0.048828125q-0.146484375,0-0.244140625-0.09765625l-0.439453125,0.146484375q-0.0732421875,0-0.1708984375-0.048828125t-0.146484375-0.048828125l-0.048828125,0q-0.48828125,0.244140625-0.68359375,0.244140625q-0.0732421875,0-0.2685546875,0.0244140625t-0.29296875,0.0244140625q-0.146484375,0-0.341796875-0.09765625q-0.1953125,0.09765625-0.29296875,0.09765625t-0.29296875-0.048828125t-0.2685546875-0.048828125q-0.0244140625,0-0.0732421875,0.0244140625t-0.0732421875,0.0244140625q-0.09765625,0-0.244140625-0.03662109375t-0.29296875-0.08544921875l-0.2197265625-0.0732421875l-0.1953125,0l-0.5126953125,0q-0.48828125,0-0.634765625-0.09765625q-0.3662109375,0.146484375-0.8056640625,0.146484375q-0.48828125,0-0.8544921875-0.146484375l-0.146484375,0q-0.09765625,0-0.32958984375-0.03662109375t-0.32958984375-0.03662109375q-0.146484375,0-0.29296875,0.0732421875q-0.244140625,0.244140625-0.537109375,0.244140625l-0.09765625,0q-0.0732421875-0.0244140625-0.146484375-0.0732421875l-0.1220703125-0.0244140625q-0.048828125,0-0.146484375,0.06103515625t-0.1953125,0.08544921875q-0.0244140625,0-0.08544921875,0.0244140625t-0.10986328125,0.0244140625q-0.0732421875,0-0.29296875-0.06103515625t-0.3173828125-0.08544921875l-0.146484375,0l-0.439453125,0q-0.5615234375,0-0.7568359375-0.2685546875q-0.29296875-0.1220703125-0.29296875-0.927734375q0-0.634765625,0.146484375-1.3671875q-0.09765625-0.5859375-0.09765625-1.1474609375l0-0.244140625q-0.09765625-0.29296875-0.09765625-0.6591796875q0-1.0009765625,0.634765625-1.0009765625l0.4150390625,0q0.390625,0,0.5859375,0.09765625q0.0244140625,0,0.0732421875,0.0244140625t0.0732421875,0.0244140625q0.1220703125,0,0.6103515625-0.244140625q0.09765625-0.048828125,0.29296875-0.048828125q0.09765625,0,0.30517578125,0.0244140625t0.30517578125,0.0244140625q0.1953125,0,0.29296875-0.048828125q0.732421875-0.146484375,0.7568359375-0.146484375q0.244140625,0,0.341796875,0.09765625q0.244140625,0.048828125,0.40283203125-0.2197265625t0.2685546875-0.72021484375t0.13427734375-0.50048828125q-0.1953125,0.09765625-0.4150390625,0.09765625q-0.29296875,0-0.29296875-0.244140625l0-0.048828125q0.048828125-0.244140625,0.6591796875-0.7080078125q-0.048828125-0.09765625-0.048828125-0.341796875l0-0.1220703125q0-0.0244140625-0.0244140625-0.09765625t-0.0244140625-0.09765625q0-0.0732421875,0.0244140625-0.2197265625t0.0244140625-0.2197265625q0-0.1220703125-0.146484375-0.1953125q-0.2197265625-0.0732421875-0.2197265625-0.2197265625q0-0.0732421875,0.2197265625-0.2685546875t0.244140625-0.2197265625q0.146484375-0.5859375,0.146484375-1.2451171875q0-0.4150390625-0.0732421875-1.2939453125t-0.0732421875-1.318359375q0-0.5615234375,0.048828125-0.8544921875l-0.244140625,0.1220703125q-0.2685546875,0-0.2685546875-0.2685546875q0-0.09765625,0.08544921875-0.20751953125t0.244140625-0.23193359375t0.18310546875-0.146484375q-0.146484375-0.87890625-0.146484375-0.9521484375l0-0.146484375q-0.1953125-0.390625-0.1953125-0.9033203125q0-0.2685546875,0.09765625-0.5615234375q0.048828125-0.146484375,0.048828125-0.48828125l0-0.6103515625q0-0.390625,0.048828125-0.537109375q-0.048828125-0.244140625-0.048828125-0.8056640625l0-0.8056640625q-0.048828125-0.29296875-0.048828125-0.9033203125l0-0.9033203125q0-0.0732421875-0.0244140625-0.2685546875t-0.0244140625-0.3173828125q0-0.87890625,0.146484375-1.0986328125q-0.09765625-0.29296875-0.09765625-1.0986328125l0-0.3173828125q0-0.1953125,0.0244140625-0.62255859375t0.0244140625-0.62255859375q-0.0244140625-0.146484375-0.13427734375-0.47607421875t-0.13427734375-0.47607421875q-0.0732421875-0.09765625-0.10986328125-0.2685546875t-0.10986328125-0.2197265625t-0.2685546875-0.048828125q-0.537109375,0-0.7568359375-0.146484375q-0.29296875,0.09765625-0.537109375,0.09765625q-0.29296875,0-0.3662109375-0.1953125q-0.1220703125-0.1220703125-0.537109375-0.1220703125q-0.1953125,0-0.5126953125,0.03662109375t-0.341796875,0.03662109375t-0.439453125-0.01220703125t-0.6591796875-0.09765625t-0.341796875-0.30517578125q-0.146484375-0.09765625-0.146484375-0.8544921875q0-0.9765625,0.146484375-2.001953125q-0.341796875,0.1708984375-0.5615234375,0.1708984375q-0.1953125,0-0.1953125-0.1220703125t0.1953125-0.390625q0.048828125-0.0732421875,0.20751953125-0.2197265625t0.244140625-0.28076171875t0.10986328125-0.25634765625q-0.048828125-0.146484375-0.048828125-0.48828125q0-0.244140625,0.048828125-0.341796875q0.1708984375-0.4150390625,0.78125-0.4150390625q0.2197265625,0,0.2685546875,0.048828125l0.146484375,0q0.341796875,0,0.537109375,0.09765625q0.1953125-0.09765625,0.4150390625-0.09765625q0.146484375,0,0.244140625,0.048828125l0.1953125,0l0.4150390625,0q0.09765625,0,0.390625-0.0244140625t0.390625-0.0244140625l0.3173828125,0q0.5859375,0,0.87890625,0.09765625q0.0244140625,0,0.08544921875,0.0244140625t0.08544921875,0.0244140625q0.09765625,0,0.25634765625-0.0732421875t0.28076171875-0.0732421875l0.146484375,0q0.09765625,0,0.25634765625-0.0244140625t0.25634765625-0.0244140625t0.1953125,0.048828125q0.3662109375,0,1.0498046875-0.1953125q0.0244140625,0,0.09765625-0.0244140625t0.09765625-0.0244140625q0.146484375,0,0.244140625,0.09765625q0.1220703125-0.09765625,0.3662109375-0.1953125l0.146484375,0q0.29296875,0,0.48828125,0.09765625q0.048828125,0,0.3662109375,0.08544921875t0.341796875,0.10986328125l0.146484375,0l0.3662109375,0q0.1953125,0.048828125,0.390625,0.048828125q0.29296875,0,0.48828125-0.09765625l0.1708984375,0q0.0732421875,0,0.25634765625,0.0244140625t0.28076171875,0.0244140625q0.634765625,0,1.0009765625,0.146484375q0.09765625-0.048828125,0.48828125-0.048828125q0.2197265625-0.146484375,0.8056640625-0.146484375q0.3662109375,0,0.5615234375,0.09765625q0.48828125,0.048828125,1.4404296875,0.048828125q0.1220703125,0.0244140625,0.5126953125-0.03662109375t0.537109375-0.06103515625q0.1953125,0,0.244140625,0.048828125q0.732421875-0.244140625,0.7568359375-0.244140625q0.1953125,0,0.1953125,0.1953125q0.1953125-0.09765625,0.4150390625-0.09765625q0.341796875,0,0.537109375,0.1953125q0.09765625,0,0.390625-0.0244140625t0.3662109375-0.0244140625q0.244140625-0.244140625,0.8544921875-0.244140625q0.0244140625,0,0.0732421875,0.0244140625t0.0732421875,0.0244140625q0.5859375,0.146484375,0.7080078125,0.146484375q0.390625,0,0.68359375,0.1953125q0.1953125-0.09765625,0.4150390625-0.09765625q0.244140625,0,0.439453125,0.09765625q0.146484375-0.048828125,0.6103515625-0.048828125q0.29296875,0,0.390625,0.048828125q0.390625-0.09765625,0.6103515625-0.09765625l0.146484375,0q0.0732421875,0,0.30517578125,0.048828125t0.32958984375,0.048828125l0.09765625,0q0.1953125-0.09765625,0.2685546875-0.09765625t0.25634765625,0.10986328125t0.28076171875,0.13427734375q1.0009765625,0.3662109375,1.318359375,0.4150390625q0.68359375,0.0732421875,1.6357421875,0.48828125q0.1953125,0,0.48828125,0.15869140625t0.4150390625,0.15869140625q0.146484375,0,0.244140625-0.048828125q0.048828125-0.048828125,0.146484375-0.048828125q0.1708984375,0,0.2197265625,0.09765625l0.09765625,0.1953125l0,0.09765625q0,0.048828125,0.146484375,0.146484375q0.0732421875,0.048828125,0.29296875,0.1708984375t0.29296875,0.1708984375q0.244140625,0.0732421875,0.7568359375,0.40283203125t0.6103515625,0.50048828125q0.09765625,0.0732421875,0.2197265625,0.20751953125t0.2685546875,0.341796875t0.1953125,0.25634765625q0.1220703125,0.1953125,0.3173828125,0.1953125q0.0732421875,0,0.3173828125-0.146484375t0.4638671875-0.146484375q0.3173828125,0,0.3173828125,0.1953125q0,0.09765625-0.146484375,0.28076171875t-0.2197265625,0.23193359375q-0.146484375,0.146484375-0.146484375,0.341796875q0,0.048828125,0.09765625,0.341796875q0.2197265625,0.2197265625,0.4150390625,0.6103515625q0.146484375,0.2197265625,0.47607421875,0.67138671875t0.47607421875,0.67138671875q0.09765625-0.09765625,0.29296875-0.09765625t0.1953125,0.244140625q0,0.2685546875-0.146484375,0.4150390625q0.0244140625,0.048828125,0.244140625,0.390625q0.048828125,0.0732421875,0.37841796875,0.244140625t0.32958984375,0.3173828125q0,0.09765625-0.09765625,0.1953125q0.1953125-0.0732421875,0.1953125,0.09765625q0,0.0732421875-0.09765625,0.32958984375t-0.09765625,0.32958984375l0,0.048828125q0.341796875,0.5615234375,0.341796875,1.0986328125q0.3173828125,0.537109375,0.439453125,1.9287109375q0.146484375,0.5126953125,0.244140625,1.1474609375t0.10986328125,1.01318359375t0.03662109375,1.23291015625t0.0244140625,1.07421875q0.29296875-0.146484375,0.439453125-0.146484375q0.1708984375,0,0.2197265625,0.09765625z M89.06591796875,55.1220703125l0.341796875-0.1953125l-0.341796875,0.1953125q0.3173828125-0.2197265625,0.93994140625-0.64697265625t0.93994140625-0.64697265625q-0.2197265625,0.1220703125-1.9775390625,1.2939453125l0.09765625,0z M92.26416015625,51.77734375q0-0.09765625,0.048828125-0.09765625q-0.9521484375,0.732421875-7.3974609375,5.4931640625l0.146484375,0q0.1708984375,0,0.390625-0.1220703125t0.54931640625-0.37841796875t0.35400390625-0.28076171875q0.244140625-0.1708984375,0.74462890625-0.52490234375t0.74462890625-0.52490234375q0.3662109375-0.244140625,1.0986328125-0.7568359375t1.07421875-0.7568359375q1.0498046875-0.634765625,1.4892578125-0.8056640625q0.1220703125-0.048828125,0.15869140625-0.23193359375t0.13427734375-0.25634765625q0-0.146484375,0.08544921875-0.28076171875t0.20751953125-0.2685546875t0.1708984375-0.20751953125z M84.30517578125,57.83203125q0.048828125-0.048828125,0.048828125-0.146484375l0-0.09765625l-0.1953125,0.1953125q0.048828125,0.048828125,0.146484375,0.048828125z M93.70458984375,49.384765625l-0.1953125,0.146484375q0.048828125-0.048828125,0.1953125-0.146484375q-0.0732421875,0.2197265625-1.3427734375,0.8544921875q-0.6591796875,0.3662109375-1.708984375,1.0986328125q1.6357421875-0.9521484375,3.0517578125-1.953125z M91.55615234375,50.1904296875l0.29296875-0.2197265625l-1.0986328125,0.7080078125q0.1953125-0.09765625,0.8056640625-0.48828125q0.2197265625-0.146484375,0.6103515625-0.4150390625t0.7080078125-0.47607421875t0.5859375-0.37841796875q0.390625-0.1953125,0.537109375-0.341796875q0.09765625-0.048828125,0.20751953125-0.20751953125t0.20751953125-0.23193359375q0.244140625-0.1953125,0.390625-0.76904296875t0.146484375-1.08642578125l0-0.29296875q-3.7353515625,2.2216796875-8.0810546875,4.6875q-0.244140625,0.146484375-0.732421875,0.42724609375t-0.732421875,0.42724609375q-0.09765625,0.048828125-0.18310546875,0.25634765625t-0.20751953125,0.28076171875q-0.1953125,0.146484375-0.6591796875,0.2685546875l-0.390625,0.390625q-0.1220703125,0.1220703125-0.25634765625,0.390625t-0.25634765625,0.3662109375q-0.1708984375,0.1220703125-0.634765625,0.244140625q-0.0244140625,0.0732421875-0.08544921875,0.2197265625t-0.08544921875,0.2197265625q-0.390625,0.5126953125-0.634765625,0.5615234375q-0.048828125,0.048828125-0.1953125,0.048828125q-0.048828125,0-0.13427734375-0.048828125t-0.13427734375-0.048828125q-0.09765625,0-0.146484375,0.048828125q-0.09765625,0.09765625-0.341796875,0.09765625l-0.6591796875,0q-0.0732421875,0.0732421875-0.3662109375,0.2685546875t-0.3662109375,0.341796875q-0.0732421875,0.1220703125-0.23193359375,0.3662109375t-0.23193359375,0.3662109375q-0.2197265625,0.4150390625-0.67138671875,1.1474609375t-0.52490234375,0.8544921875q0.634765625-0.1953125,1.37939453125-0.54931640625t1.23291015625-0.64697265625t1.35498046875-0.81787109375t1.18408203125-0.72021484375t8.3984375-5.2490234375z M73.51416015625,58.076171875q0.6591796875-0.29296875,1.35498046875-0.74462890625t1.57470703125-1.0986328125t1.26953125-0.89111328125q-0.1220703125-0.1220703125-0.5615234375-0.1220703125l-0.5859375,0q-0.09765625-0.048828125-0.3662109375-0.048828125l-0.390625,0q-0.048828125,0-0.3662109375-0.048828125t-0.48828125-0.048828125q-0.4638671875,0-0.537109375,0.2685546875l-0.4150390625,1.2451171875t-0.48828125,1.4892578125z M65.79931640625,57.490234375l0.5126953125-0.3662109375l-0.5615234375,0.4150390625l0.048828125-0.048828125q1.2451171875-0.78125,4.19921875-2.9052734375q0.0244140625-0.0244140625,0.244140625-0.2197265625t0.390625-0.32958984375t0.37841796875-0.23193359375t0.35400390625-0.0732421875q0.048828125-0.09765625,0.048828125-0.29296875l0-0.2685546875q-2.392578125,1.9775390625-7.2021484375,5.0048828125q0.6103515625-0.09765625,0.68359375-0.146484375q0.390625-0.1953125,0.9033203125-0.537109375z M64.31005859375,50.4833984375l0,0.09765625q2.1240234375-1.806640625,5.7861328125-4.58984375q-2.099609375,1.1962890625-3.6865234375,2.197265625q-0.048828125,0.0244140625-0.47607421875,0.28076171875t-0.62255859375,0.40283203125q-0.2197265625,0.1220703125-0.5615234375,0.3662109375q-0.29296875,0.0732421875-0.29296875,0.341796875l0,0.09765625q-0.048828125,0.1220703125-0.0732421875,0.40283203125t-0.0732421875,0.40283203125z M64.45654296875,46.0888671875l0.390625-0.4150390625q-0.390625,0.3662109375-0.390625,0.4150390625q1.07421875-1.07421875,3.0029296875-2.4658203125q1.6357421875-1.2451171875,2.587890625-1.904296875q0.048828125-0.0244140625,0.54931640625-0.341796875t0.76904296875-0.57373046875t0.244140625-0.47607421875q-0.78125,0.439453125-1.59912109375,1.0009765625t-1.8310546875,1.2939453125t-1.52587890625,1.0986328125q-0.0732421875,0.048828125-0.48828125,0.35400390625t-0.81787109375,0.52490234375t-0.69580078125,0.2197265625q-0.146484375,0-0.1953125-0.048828125q0,0.09765625-0.0244140625,0.3173828125t-0.0244140625,0.341796875q0,0.09765625,0.0244140625,0.32958984375t0.0244140625,0.32958984375z M64.31005859375,43.232421875l0.29296875-0.1953125l-0.29296875,0.1953125q1.26953125-0.9765625,2.63671875-1.904296875q-0.244140625,0.146484375-0.76904296875,0.45166015625t-0.76904296875,0.45166015625q-0.0732421875,0.0244140625-0.32958984375,0.146484375t-0.40283203125,0.1953125t-0.28076171875,0.2197265625t-0.13427734375,0.29296875q0,0.0244140625,0.0244140625,0.0732421875t0.0244140625,0.0732421875z M69.65673828125,26.142578125l-0.09765625,0.048828125l0.09765625-0.048828125q-0.146484375,0.0244140625-0.7568359375,0.48828125q0.1220703125-0.0732421875,0.37841796875-0.244140625t0.37841796875-0.244140625z M87.64990234375,27.3388671875q-0.537109375,0.2685546875-1.45263671875,0.8056640625t-1.28173828125,0.732421875q-0.244140625,0.146484375-0.86669921875,0.52490234375t-0.98876953125,0.57373046875q-0.048828125,0.0244140625-0.244140625,0.15869140625t-0.37841796875,0.23193359375t-0.28076171875,0.0732421875q0.2685546875,0.1953125,0.390625,0.1953125q0.1953125,0,0.4150390625-0.146484375q0.244140625-0.146484375,0.72021484375-0.45166015625t0.72021484375-0.45166015625t2.1484375-1.46484375q0.048828125-0.0244140625,0.32958984375-0.23193359375t0.5126953125-0.37841796875t0.25634765625-0.1708984375z M90.31103515625,28.73046875l-0.5126953125,0.244140625l0.5126953125-0.244140625q-0.7568359375,0.4150390625-5.712890625,3.3935546875q0.09765625,0.146484375,0.40283203125,0.45166015625t0.40283203125,0.50048828125q0.048828125-0.1220703125,0.23193359375-0.28076171875t0.45166015625-0.341796875t0.3173828125-0.23193359375q1.611328125-1.2939453125,1.904296875-1.5380859375z M91.65380859375,30.2685546875l-0.29296875,0.2197265625q0.048828125,0,0.18310546875-0.09765625t0.10986328125-0.1220703125q-1.0009765625,0.6103515625-4.443359375,2.8076171875q-0.09765625,0.048828125-0.390625,0.2685546875t-0.537109375,0.341796875t-0.4150390625,0.09765625q0.4638671875,0.8544921875,0.5859375,1.4892578125q2.63671875-1.9775390625,4.1015625-3.3447265625q0.1220703125-0.1220703125,0.341796875-0.32958984375t0.4150390625-0.40283203125t0.341796875-0.3662109375q0.146484375-0.146484375,0.146484375-0.244140625q0-0.1708984375-0.146484375-0.3173828125z M87.11279296875,36.3720703125l0,0.048828125l0-0.048828125l0-0.048828125q0-0.1220703125,0.18310546875-0.28076171875t0.47607421875-0.341796875t0.57373046875-0.32958984375t0.57373046875-0.30517578125t0.341796875-0.18310546875q0.341796875-0.1953125,0.9765625-0.62255859375t0.9765625-0.62255859375q-1.85546875,1.0498046875-3.662109375,2.05078125q-0.09765625,0.0732421875-0.25634765625,0.09765625t-0.2685546875,0.0244140625t-0.1953125,0.048828125t-0.08544921875,0.1708984375q0,0.0244140625,0.0244140625,0.09765625t0.0244140625,0.09765625q0.048828125,0.1220703125,0.18310546875,0.45166015625t0.2197265625,0.6103515625t0.10986328125,0.50048828125q0.439453125-0.341796875,1.8310546875-1.37939453125t2.1240234375-1.62353515625q-2.6611328125,1.904296875-3.61328125,1.904296875q-0.390625,0-0.537109375-0.3173828125z M95.46240234375,40.2294921875q-0.048828125,0.048828125-0.048828125,0.09765625q0.048828125-0.048828125,0.048828125-0.09765625q-1.7822265625,1.513671875-5.2490234375,4.150390625q3.5400390625-2.2216796875,4.39453125-2.7099609375l0.2685546875-0.13427734375t0.390625-0.20751953125t0.1953125-0.1953125q0.048828125-0.09765625,0.048828125-0.29296875q0-0.09765625-0.0244140625-0.30517578125t-0.0244140625-0.30517578125z M87.25927734375,46.0400390625l0.5859375-0.4638671875l-0.5859375,0.4638671875q2.1484375-1.5869140625,4.58984375-3.564453125q-2.490234375,1.6845703125-3.7353515625,2.1484375q-0.48828125,0.1953125-0.7080078125,0.1953125q-0.146484375,0.048828125-0.146484375,0.8056640625l0,0.4150390625z M79.91064453125,53.779296875l0.048828125,0l-0.048828125,0q0.5615234375-0.2197265625,0.5859375-0.244140625q0.390625-0.1708984375,0.8056640625-0.5126953125q0.09765625-0.048828125,0.3662109375-0.15869140625t0.390625-0.28076171875q0.1708984375-0.341796875,0.390625-0.5615234375q0.390625-0.3662109375,1.08642578125-0.927734375t0.86669921875-0.7080078125t0.32958984375-0.390625t0.23193359375-0.439453125t0.20751953125-0.54931640625t0.18310546875-0.47607421875q0.146484375-0.7568359375,0.29296875-0.9521484375l0-0.048828125q0-0.1708984375,0.1220703125-0.52490234375t0.1953125-0.47607421875l0-0.09765625q0-0.4638671875,0.146484375-0.9033203125q0.0244140625-0.09765625,0.048828125-0.35400390625t0.048828125-0.35400390625q-0.048828125-0.146484375-0.048828125-0.48828125q0-0.3662109375,0.146484375-1.3916015625q-0.146484375-1.6845703125-0.146484375-1.7578125q0.1953125-1.513671875,0.244140625-1.66015625q-0.0244140625,0-0.08544921875,0.0244140625t-0.10986328125,0.0244140625q-0.390625,0-0.390625-0.1953125q0-0.09765625,0.146484375-0.244140625q0.0244140625-0.0244140625,0.1220703125-0.0732421875t0.15869140625-0.09765625t0.06103515625-0.1220703125q-0.09765625-0.48828125-0.09765625-0.8544921875q-0.048828125-0.1220703125-0.1953125-0.69580078125t-0.2685546875-0.81787109375q-0.048828125,0.0244140625-0.48828125,0.3173828125q-0.048828125,0.048828125-0.146484375,0.048828125q-0.244140625,0-0.244140625-0.244140625q0-0.1708984375,0.09765625-0.2197265625q0.048828125-0.048828125,0.15869140625-0.10986328125t0.18310546875-0.09765625t0.13427734375-0.1220703125t0.06103515625-0.15869140625q0-0.146484375-0.048828125-0.1953125q-0.09765625-0.146484375-0.18310546875-0.37841796875t-0.1708984375-0.52490234375t-0.13427734375-0.4150390625q-0.244140625-0.1953125-0.5615234375-0.830078125q-0.0732421875-0.1220703125-0.2685546875-0.30517578125t-0.2685546875-0.30517578125q-0.2197265625-0.146484375-0.2685546875-0.146484375q-0.09765625,0-0.1953125,0.048828125q-0.048828125,0.048828125-0.146484375,0.048828125q-0.1953125-0.0732421875-0.1953125-0.1953125q0-0.146484375,0.146484375-0.29296875q-0.7080078125-0.634765625-1.806640625-1.07421875q-0.1953125-0.0732421875-0.84228515625-0.40283203125t-1.06201171875-0.32958984375q-0.1953125,0-0.35400390625-0.0732421875t-0.23193359375-0.0732421875q-0.048828125,0-0.341796875,0.09765625q-0.439453125,0.146484375-0.5126953125,0.146484375q-0.146484375,0-0.244140625-0.09765625q-0.0732421875-0.048828125-0.10986328125-0.1708984375t-0.08544921875-0.146484375q-0.146484375,0.0732421875-0.3662109375,0.0732421875q-0.341796875,0-0.48828125-0.0732421875q-0.09765625,0-0.29296875,0.10986328125t-0.3173828125,0.10986328125q-0.146484375-0.146484375-0.48828125-0.146484375l-0.048828125,0q-0.29296875,0.146484375-0.4638671875,0.146484375q-0.68359375-0.09765625-1.0498046875-0.09765625q-0.5126953125,0-0.9033203125,0.1953125q-0.0732421875,0.048828125-0.1953125,0.08544921875t-0.1708984375,0.06103515625t-0.1220703125,0.10986328125t-0.09765625,0.23193359375q0.09765625,0.29296875,0.09765625,0.6103515625q0,0.0732421875-0.0244140625,0.20751953125t-0.0244140625,0.18310546875q0.048828125,0.048828125,0.048828125,0.244140625l0,0.2197265625l0.048828125,0q0.244140625,0,0.244140625,0.244140625l0,0.048828125q0,0.09765625-0.13427734375,0.2197265625t-0.15869140625,0.1708984375q0.048828125,0.048828125,0.048828125,0.2197265625q0,0.1953125-0.048828125,0.244140625q0.048828125,0.1953125,0.048828125,0.634765625q0,0.2685546875-0.0244140625,0.74462890625t-0.0244140625,0.67138671875q0.09765625-0.048828125,0.341796875-0.048828125q0.3662109375,0,0.3662109375,0.1953125q0,0.048828125-0.09765625,0.244140625q-0.0732421875,0.146484375-0.3173828125,0.35400390625t-0.29296875,0.35400390625q0,0.146484375-0.09765625,0.537109375q0,0.09765625,0.10986328125,0.244140625t0.08544921875,0.2197265625q-0.0244140625,0.09765625-0.1220703125,0.18310546875t-0.1220703125,0.15869140625l0,0.244140625q0.09765625,0.1953125,0.09765625,0.8056640625q0,0.048828125,0.10986328125,0.0732421875t0.244140625,0.08544921875t0.18310546875,0.13427734375q0.048828125,0.048828125,0.048828125,0.1708984375q0,0.09765625-0.08544921875,0.20751953125t-0.23193359375,0.23193359375t-0.1708984375,0.146484375l0,0.341796875q0,0.4638671875-0.146484375,1.3427734375t-0.146484375,1.318359375l0,0.1953125q0.1953125,0.48828125,0.1953125,1.1474609375q0,0.0732421875-0.0244140625,0.1953125l-0.0244140625,0.1220703125q-0.1953125,1.171875-0.1953125,1.1962890625q0,0.048828125,0.0244140625,0.1220703125t0.0244140625,0.1220703125q0.0244140625,0,0.0732421875-0.0244140625t0.0732421875-0.0244140625q0.341796875,0,0.341796875,0.390625q0,0.244140625-0.146484375,0.4638671875q-0.09765625,0.09765625-0.09765625,0.29296875q0,0.09765625,0.048828125,0.28076171875t0.048828125,0.28076171875t-0.048828125,0.1953125q0.09765625,0.390625,0.09765625,0.8544921875q0,0.390625-0.09765625,0.87890625q-0.0244140625,0.0732421875-0.03662109375,0.4150390625t-0.06103515625,0.48828125q0,0.1220703125,0.0244140625,0.341796875t0.0244140625,0.3173828125q0,0.29296875-0.146484375,0.48828125q0,0.048828125,0.0244140625,0.1953125t0.0244140625,0.2197265625q0,0.2197265625-0.048828125,0.67138671875t-0.048828125,0.67138671875l0,0.1953125q0.1953125-0.048828125,0.9033203125-0.048828125q0.439453125-0.146484375,0.9521484375-0.146484375q0.3662109375,0,1.0498046875,0.09765625l0.341796875,0l0.7080078125,0q0.09765625,0,0.5126953125,0.0732421875t0.68359375,0.0732421875q0.29296875,0,0.439453125-0.048828125q0.1708984375-0.048828125,1.0009765625-0.1953125q0.09765625-0.048828125,0.244140625-0.048828125q0.0732421875,0,0.20751953125,0.048828125t0.20751953125,0.048828125q0.0244140625,0,0.0732421875-0.0244140625t0.0732421875-0.0244140625z M64.26123046875,51.2890625l0.244140625-0.146484375l-0.244140625,0.146484375q0.87890625-0.537109375,2.60009765625-1.6845703125t2.60009765625-1.6845703125q1.4892578125-0.9033203125,1.6845703125-1.0009765625q0.2685546875-0.1220703125,0.2685546875-0.68359375q0-0.09765625-0.0244140625-0.32958984375t-0.0244140625-0.32958984375q-0.68359375,0.537109375-2.06298828125,1.62353515625t-2.03857421875,1.62353515625q-0.5615234375,0.3662109375-1.81884765625,1.3427734375t-1.18408203125,1.123046875z M64.21240234375,34.638671875l0.1953125-0.09765625l-0.1953125,0.09765625q1.3427734375-0.8056640625,1.4404296875-0.8544921875q-0.1220703125,0.048828125-0.537109375,0.08544921875t-0.68359375,0.146484375t-0.2685546875,0.35400390625q0,0.1708984375,0.048828125,0.2685546875z M71.51220703125,30.87890625l-0.8056640625,0.439453125l0.8056640625-0.439453125q-2.1728515625,1.220703125-4.248046875,2.490234375q-0.4638671875,0.244140625-1.28173828125,0.7568359375t-1.08642578125,0.6591796875q-0.048828125,0.0244140625-0.1953125,0.10986328125t-0.2197265625,0.13427734375t-0.146484375,0.1220703125t-0.0732421875,0.1708984375l0,0.048828125q0,0.0732421875-0.0244140625,0.30517578125t-0.0244140625,0.30517578125q3.369140625-2.6123046875,5.0537109375-3.4912109375q0.0732421875-0.048828125,0.830078125-0.32958984375t1.123046875-0.57373046875t0.29296875-0.7080078125z M78.25048828125,27.0703125q0.3173828125-0.1708984375,0.9033203125-0.50048828125t0.9033203125-0.50048828125q-0.1953125-0.0732421875-0.537109375,0.10986328125t-0.76904296875,0.5126953125t-0.50048828125,0.37841796875z M64.16357421875,37.275390625l0.048828125,0l-0.048828125,0q0.732421875-0.5615234375,2.18505859375-1.513671875t2.01416015625-1.3427734375q0.1708984375-0.1220703125,0.86669921875-0.537109375t1.11083984375-0.7568359375t0.6103515625-0.732421875q-0.09765625-0.048828125-0.47607421875,0.20751953125t-0.78125,0.57373046875t-0.47607421875,0.3662109375q-0.341796875,0.2197265625-2.6123046875,1.6357421875q-1.5869140625,0.927734375-2.05078125,1.1962890625q-0.1220703125,0.0732421875-0.1953125,0.1220703125t-0.10986328125,0.146484375t-0.048828125,0.146484375t-0.0244140625,0.2197265625t-0.01220703125,0.2685546875z M64.26123046875,38.69140625q0,0.0244140625,0.0244140625,0.0732421875t0.0244140625,0.0732421875q2.7099609375-1.85546875,5.3466796875-3.80859375q-2.001953125,1.26953125-4.150390625,2.44140625q-0.2197265625,0.146484375-0.9521484375,0.5126953125q-0.29296875,0.1220703125-0.29296875,0.29296875l0,0.4150390625z M65.65283203125,36.8359375l0.7568359375-0.4150390625q-0.5615234375,0.2685546875-0.7568359375,0.4150390625q1.171875-0.634765625,4.5654296875-2.7099609375q0.09765625-0.0732421875,0.537109375-0.29296875t0.64697265625-0.439453125t0.20751953125-0.5126953125l0-0.48828125q0-0.3662109375-0.048828125-0.5126953125q-0.09765625,0.09765625-0.09765625,0.244140625q0,0.2685546875-0.09765625,0.4638671875q-0.244140625,0.439453125-0.8056640625,0.9033203125q-0.68359375,0.5615234375-1.45263671875,1.08642578125t-1.9287109375,1.26953125t-1.52587890625,0.98876953125z M71.56103515625,34.1748046875l-0.1953125,0.146484375q0.1953125-0.09765625,0.1953125-0.146484375q-0.4638671875,0.4150390625-1.416015625,1.0498046875q0.0732421875-0.048828125,0.50048828125-0.25634765625t0.6591796875-0.40283203125t0.25634765625-0.390625z M71.56103515625,35.46875q-1.66015625,1.318359375-4.443359375,3.466796875q1.7333984375-1.07421875,3.4423828125-2.05078125q0.1708984375-0.09765625,0.52490234375-0.30517578125t0.52490234375-0.30517578125l0-0.390625q0-0.3173828125-0.048828125-0.4150390625z M71.41455078125,38.1787109375q-0.341796875,0.1953125-1.025390625,0.59814453125t-1.025390625,0.59814453125q0.29296875-0.146484375,1.1474609375-0.634765625l0.29296875-0.146484375t0.42724609375-0.23193359375t0.18310546875-0.18310546875z M69.60791015625,40.0830078125l0.6591796875-0.341796875q-0.146484375,0-0.6591796875,0.341796875q0.8056640625-0.48828125,1.5869140625-0.7568359375q0.3173828125-0.1220703125,0.3173828125-0.29296875l0-0.1953125q-0.390625,0.2197265625-1.06201171875,0.67138671875t-0.84228515625,0.57373046875z M70.14501953125,40.3271484375q-0.1220703125,0.0732421875-0.634765625,0.37841796875t-0.8544921875,0.52490234375q0.244140625-0.146484375,0.74462890625-0.45166015625t0.74462890625-0.45166015625z M95.04736328125,44.94140625q-0.0244140625,0.09765625-0.341796875,0.2685546875t-0.72021484375,0.3662109375t-0.47607421875,0.244140625q-0.48828125,0.2685546875-1.3671875,0.79345703125t-0.9765625,0.57373046875q-0.439453125,0.2685546875-1.33056640625,0.79345703125t-1.57470703125,0.9521484375t-1.2939453125,0.84228515625q0.8544921875-0.48828125,2.5146484375-1.4892578125t2.5146484375-1.513671875q0.341796875-0.1708984375,0.9765625-0.54931640625t0.9765625-0.54931640625q0.048828125-0.0244140625,0.2685546875-0.1220703125t0.35400390625-0.1708984375t0.29296875-0.1953125t0.18310546875-0.244140625z M89.55419921875,47.138671875l0.048828125-0.048828125q0-0.0244140625-0.09765625,0.03662109375t-0.1953125,0.13427734375l-0.09765625,0.0732421875q0.09765625-0.048828125,0.341796875-0.1953125q0.1953125-0.1220703125,0.57373046875-0.37841796875t0.57373046875-0.37841796875q-2.8564453125,1.7822265625-3.90625,2.5390625q0.439453125-0.3173828125,1.3671875-0.89111328125t1.3916015625-0.89111328125z M87.45458984375,47.87109375q0.0244140625,0.0244140625-0.09765625,0.09765625l0.09765625-0.09765625l-0.2197265625,0.09765625q-0.2197265625,0.1220703125-0.40283203125,0.244140625t-0.18310546875,0.2197265625q0.1220703125-0.09765625,0.40283203125-0.28076171875t0.40283203125-0.28076171875z M87.06396484375,46.8701171875q0.048828125-0.048828125,0.048828125-0.09765625q-0.048828125,0.048828125-0.048828125,0.09765625q0.390625-0.29296875,0.48828125-0.390625q-0.048828125,0.048828125-0.1953125,0.048828125t-0.1953125-0.048828125q-0.09765625,0.1953125-0.09765625,0.390625z M87.40576171875,43.720703125l0-0.048828125l0,0.048828125l0,0.1708984375q4.296875-3.515625,6.298828125-5.419921875q-0.68359375,0.390625-2.001953125,1.15966796875t-2.001953125,1.15966796875q-0.3662109375,0.1953125-1.025390625,0.59814453125t-1.025390625,0.59814453125q-0.244140625,0.1220703125-0.244140625,0.537109375q0,0.1220703125,0.0244140625,0.40283203125t0.0244140625,0.40283203125q0,0.29296875-0.048828125,0.390625z M87.40576171875,40.7421875l0-0.0732421875l0,0.0732421875q0.0244140625-0.0732421875,0.18310546875-0.20751953125t0.3662109375-0.29296875t0.25634765625-0.20751953125q0.5859375-0.5126953125,1.1474609375-0.8544921875q-0.146484375,0.0732421875-1.806640625,1.0009765625q-0.0732421875,0.048828125-0.09765625,0.13427734375t-0.0244140625,0.2197265625t-0.0244140625,0.20751953125z M87.50341796875,39.423828125l0.09765625-0.09765625l-0.09765625,0.09765625q0.2685546875-0.2685546875,0.84228515625-0.72021484375t0.76904296875-0.62255859375q-0.1220703125,0.09765625-0.5615234375,0.29296875t-0.74462890625,0.42724609375t-0.30517578125,0.47607421875l0,0.146484375z M84.06103515625,31.6357421875l0.48828125-0.5126953125q-0.48828125,0.4150390625-0.48828125,0.5126953125q1.6845703125-1.611328125,3.4912109375-3.1982421875q-0.5126953125,0.29296875-2.03857421875,1.1474609375t-2.35595703125,1.3427734375q0.048828125,0.048828125,0.40283203125,0.28076171875t0.50048828125,0.42724609375z M82.01025390625,30.2685546875l-0.048828125-0.048828125l0.048828125,0.048828125q0-0.0244140625-0.0244140625-0.0732421875t-0.0244140625-0.0732421875q0-0.2197265625,0.2685546875-0.6103515625t0.5859375-0.732421875t0.68359375-0.7080078125t0.4150390625-0.439453125q-0.5615234375,0.3173828125-1.6845703125,0.96435546875t-1.6845703125,0.98876953125q0.1220703125,0.1220703125,0.7568359375,0.341796875t0.7080078125,0.341796875z M79.00732421875,29.12109375l0.29296875-0.1953125q-0.29296875,0.146484375-0.29296875,0.1953125q2.1240234375-1.611328125,2.9052734375-2.34375q-2.24609375,1.26953125-3.759765625,2.197265625q0.4150390625,0,0.8544921875,0.146484375z M74.80810546875,27.5830078125l-0.439453125,0.244140625q0.09765625-0.048828125,0.439453125-0.244140625q0.1953125-0.1220703125,0.6591796875-0.4638671875q-2.44140625,1.2939453125-3.69873046875,1.9775390625t-3.2470703125,1.9287109375t-3.45458984375,2.4169921875q0.3173828125-0.048828125,0.67138671875-0.18310546875t0.59814453125-0.244140625t0.634765625-0.3173828125t0.5859375-0.30517578125q2.5146484375-1.513671875,3.2470703125-2.001953125q0.048828125-0.0244140625,0.3173828125-0.2685546875t0.390625-0.29296875l0-0.09765625q0-0.2197265625,0.1953125-0.29296875q0.341796875-0.341796875,0.6103515625-0.4150390625q0.390625-0.09765625,0.81787109375-0.341796875t0.927734375-0.59814453125t0.74462890625-0.50048828125z M64.50537109375,32.734375l0.09765625-0.09765625l-0.09765625,0.09765625q0.3662109375-0.3662109375,0.76904296875-0.72021484375t0.89111328125-0.732421875t0.81787109375-0.634765625t0.927734375-0.67138671875t0.84228515625-0.5859375t0.93994140625-0.634765625t0.86669921875-0.5859375q-1.66015625,0.9033203125-4.1015625,2.3681640625q-0.537109375,0.2685546875-2.001953125,1.1474609375q-0.29296875,0.146484375-0.29296875,0.634765625q0,0.3173828125,0.09765625,0.7080078125q0.048828125-0.09765625,0.244140625-0.29296875z M64.21240234375,31.07421875l0.09765625-0.09765625l-0.09765625,0.09765625q0.4150390625-0.4150390625,0.91552734375-0.89111328125t0.8544921875-0.76904296875t1.0009765625-0.830078125t0.91552734375-0.7568359375q-0.1953125,0.1220703125-1.1962890625,0.79345703125t-1.69677734375,1.025390625t-1.35498046875,0.47607421875q0.048828125,0.1220703125,0.1708984375,0.5126953125t0.244140625,0.5859375z M58.96337890625,28.388671875q0.927734375-1.46484375,1.4404296875-2.3193359375q-0.09765625,0.0732421875-0.4638671875,0.25634765625t-0.62255859375,0.3662109375t-0.30517578125,0.37841796875q0,0.048828125,0.0244140625,0.2197265625t0.0244140625,0.29296875q0,0.5126953125-0.09765625,0.8056640625z M64.26123046875,40.4736328125l0.048828125,0l0-0.048828125l-0.048828125,0.048828125q0-0.0732421875,1.55029296875-1.20849609375t1.89208984375-1.37939453125q3.1494140625-2.490234375,3.3935546875-2.6611328125q-0.9521484375,0.5859375-2.57568359375,1.7822265625t-2.30712890625,1.6357421875q-1.1962890625,0.732421875-1.513671875,0.830078125q-0.4150390625,0.1953125-0.439453125,0.2685546875q0.048828125,0.09765625,0.048828125,0.390625q0,0.244140625-0.048828125,0.341796875z M71.51220703125,36.884765625l-0.8056640625,0.439453125l0.8056640625-0.439453125q-2.44140625,1.3671875-4.248046875,2.5390625q-0.4638671875,0.244140625-1.30615234375,0.78125t-1.06201171875,0.68359375q-0.048828125,0.0244140625-0.18310546875,0.10986328125t-0.18310546875,0.10986328125t-0.146484375,0.10986328125t-0.1220703125,0.13427734375t-0.06103515625,0.13427734375t-0.03662109375,0.18310546875l0,0.1220703125q2.3193359375-1.4404296875,4.150390625-2.6123046875q0.3173828125-0.2197265625,0.96435546875-0.64697265625t0.98876953125-0.64697265625q0.0732421875-0.048828125,0.42724609375-0.25634765625t0.5615234375-0.390625t0.25634765625-0.35400390625z M67.99658203125,42.1826171875l-0.732421875,0.439453125q0.68359375-0.439453125,0.732421875-0.439453125q-2.0263671875,1.220703125-2.83203125,1.904296875q0.537109375-0.3173828125,2.83203125-1.904296875z M66.16552734375,45.234375l-0.2197265625,0.146484375q-0.048828125,0,0.5615234375-0.439453125q-0.048828125,0.048828125-0.341796875,0.29296875q-1.0498046875,0.830078125-1.5625,1.3916015625q4.1748046875-2.392578125,4.4921875-2.587890625q0.341796875-0.1953125,1.03759765625-0.59814453125t1.06201171875-0.59814453125q0.146484375-0.09765625,0.244140625-0.4150390625t0.146484375-0.7568359375t0.0732421875-0.537109375q-0.2197265625,0.1708984375-2.33154296875,1.708984375t-3.16162109375,2.392578125z M71.36572265625,43.37890625q-0.87890625,0.7568359375-2.64892578125,2.2216796875t-2.64892578125,2.2216796875q3.2470703125-2.0263671875,4.736328125-2.734375q0.048828125-0.0244140625,0.18310546875-0.08544921875t0.2197265625-0.09765625t0.1708984375-0.1220703125t0.08544921875-0.15869140625l0-0.146484375q0-0.146484375-0.048828125-0.47607421875t-0.048828125-0.47607421875l0-0.146484375z M67.11767578125,50.2392578125l-0.2197265625,0.09765625q0,0.0244140625,0.42724609375-0.2197265625t0.84228515625-0.48828125l0.439453125-0.244140625q-0.390625,0.1953125-1.4892578125,0.8544921875q-1.8798828125,1.171875-2.099609375,1.2939453125q-0.09765625,0.0732421875-0.3173828125,0.1708984375t-0.2685546875,0.15869140625t-0.0244140625,0.20751953125l0,0.2685546875q0.78125-0.537109375,2.23388671875-1.416015625t2.01416015625-1.2451171875q0.3662109375-0.2197265625,1.0498046875-0.67138671875t1.0498046875-0.67138671875q0.244140625-0.1708984375,0.8056640625-0.6103515625q0-0.0732421875-0.0244140625-0.2197265625t-0.0244140625-0.2197265625q-0.146484375,0.09765625-0.390625,0.390625t-0.4150390625,0.4150390625q-0.5126953125,0.3662109375-1.0986328125,0.72021484375t-1.35498046875,0.78125t-1.13525390625,0.64697265625z M71.56103515625,48.7255859375l0-0.048828125l0,0.048828125q0.09765625-0.048828125,0.09765625-0.244140625l0-0.1953125q-0.09765625,0.0732421875-0.30517578125,0.1953125t-0.30517578125,0.1953125q0.1953125-0.09765625,0.3173828125-0.09765625t0.1953125,0.146484375z M68.85107421875,56.07421875l-0.29296875,0.244140625q-0.048828125,0,0.6103515625-0.48828125q-0.0732421875,0.048828125-0.3173828125,0.244140625q-1.416015625,1.123046875-2.099609375,1.806640625q0.5126953125-0.29296875,1.5380859375-0.9033203125t1.5625-0.9033203125q0.2685546875-0.146484375,0.79345703125-0.45166015625t0.81787109375-0.45166015625q0.048828125-0.048828125,0.048828125-0.1953125q0-0.0732421875-0.048828125-0.3173828125t-0.048828125-0.3662109375l0-0.1220703125q-1.2939453125,0.927734375-2.5634765625,1.904296875z M72.51318359375,55.390625q-0.3173828125,0.244140625-0.3173828125,0.29296875q0.0244140625-0.0244140625,0.06103515625-0.048828125l0.10986328125-0.0732421875t0.1220703125-0.09765625t0.0244140625-0.0732421875q-0.390625,0.29296875-1.13525390625,0.89111328125t-1.11083984375,0.89111328125q0.7568359375-0.48828125,3.3935546875-2.001953125q-0.048828125-0.048828125-0.146484375-0.048828125q-0.1220703125,0-0.4150390625,0.15869140625t-0.439453125,0.15869140625q-0.0244140625,0-0.0732421875-0.0244140625t-0.0732421875-0.0244140625z M95.31591796875,43.623046875q-0.0244140625,0.09765625-0.37841796875,0.29296875t-0.79345703125,0.4150390625t-0.537109375,0.29296875q-0.4150390625,0.2197265625-1.1474609375,0.67138671875t-0.8544921875,0.52490234375q2.1240234375-1.2451171875,3.0029296875-1.5380859375q0.29296875-0.09765625,0.48828125-0.09765625q0.2197265625-0.0732421875,0.2197265625-0.244140625l0-0.3173828125z M86.86865234375,47.67578125q0.8056640625-0.439453125,2.392578125-1.35498046875t2.392578125-1.37939453125q0.390625-0.244140625,1.40380859375-0.830078125t1.55029296875-0.927734375q0.0732421875-0.048828125,0.20751953125-0.10986328125t0.1953125-0.08544921875t0.146484375-0.0732421875t0.13427734375-0.08544921875t0.09765625-0.09765625t0.0732421875-0.1220703125t0.03662109375-0.146484375t0.01220703125-0.18310546875q0-0.244140625-0.048828125-0.390625q-2.34375,1.46484375-5.2978515625,3.3935546875q-0.390625,0.244140625-1.0986328125,0.74462890625t-1.0986328125,0.74462890625q-0.0732421875,0.048828125-0.35400390625,0.244140625t-0.48828125,0.3662109375t-0.25634765625,0.29296875z M95.36474609375,39.130859375q-0.1708984375-0.390625-0.3173828125-1.806640625q-0.09765625-0.2197265625-0.18310546875-0.69580078125t-0.10986328125-0.54931640625q-2.1484375,1.318359375-4.58984375,3.0517578125q-1.513671875,1.123046875-2.1484375,1.7578125q-0.6591796875,0.439453125-0.6591796875,0.634765625l0,0.048828125q1.0986328125-0.634765625,3.3203125-1.904296875t3.3203125-1.9287109375q0.048828125-0.0244140625,0.3173828125-0.1953125t0.390625-0.1708984375q0.1708984375,0,0.244140625,0.146484375q0.1953125,0.439453125-1.1474609375,1.513671875q-1.7822265625,1.6845703125-6.15234375,5.2490234375q1.2939453125-0.4150390625,3.41796875-1.85546875q0.8544921875-0.537109375,3.1005859375-2.05078125q0.146484375-0.1220703125,1.0986328125-0.8056640625q0.146484375-0.0732421875,0.146484375-0.146484375q0-0.048828125-0.0244140625-0.13427734375t-0.0244140625-0.15869140625z M94.41259765625,34.931640625q0,0.0244140625-1.220703125,0.9033203125t-2.57568359375,1.8310546875t-1.55029296875,1.123046875q1.2451171875-0.7568359375,3.8330078125-2.2705078125q0.244140625-0.146484375,0.732421875-0.4150390625t0.732421875-0.4150390625q0.1953125-0.1220703125,0.1953125-0.2685546875q0-0.0732421875-0.06103515625-0.244140625t-0.08544921875-0.244140625z M91.26318359375,35.5908203125l0.390625-0.3173828125l-0.634765625,0.4638671875q0.09765625-0.048828125,0.244140625-0.146484375q1.66015625-1.220703125,2.099609375-1.513671875q0.09765625-0.0732421875,0.244140625-0.146484375t0.2197265625-0.13427734375t0.0732421875-0.15869140625q0-0.1220703125-0.146484375-0.2685546875q-1.5625,1.3427734375-5.0048828125,3.955078125q1.0986328125-0.732421875,2.5146484375-1.7333984375z M93.16748046875,32.44140625q0-0.0244140625-0.0244140625,0.048828125q-0.09765625,0.1953125-0.146484375,0.244140625q-0.0732421875,0.09765625-0.1708984375,0.1953125t-0.2197265625,0.20751953125t-0.1953125,0.18310546875q-1.025390625,0.830078125-4.00390625,2.6123046875q0.9521484375-0.439453125,2.7587890625-1.66015625q0.244140625-0.1708984375,0.927734375-0.6591796875t1.07421875-0.732421875q0.146484375-0.146484375,0.146484375-0.1953125q0-0.0244140625-0.146484375-0.244140625z M92.16650390625,30.9765625q0.0244140625,0.0732421875-0.64697265625,0.72021484375t-0.81787109375,0.74462890625q-1.5625,1.3671875-2.44140625,2.05078125q0.4150390625-0.2197265625,1.220703125-0.7080078125t1.220703125-0.7080078125q0.1708984375-0.09765625,0.57373046875-0.37841796875t0.7568359375-0.45166015625t0.67138671875-0.1708984375q0.048828125,0,0.1220703125,0.0244140625t0.1220703125,0.0244140625q-0.1220703125-0.1953125-0.390625-0.57373046875t-0.390625-0.57373046875z M91.16552734375,29.6337890625q-0.09765625-0.0732421875-0.25634765625-0.28076171875t-0.25634765625-0.28076171875q-0.830078125,0.9521484375-3.2958984375,3.0029296875q0.2197265625-0.1220703125,1.123046875-0.68359375t1.806640625-1.13525390625t0.87890625-0.62255859375z M89.55419921875,28.2421875q-0.09765625-0.0244140625-0.30517578125-0.1953125t-0.35400390625-0.1708984375q-0.09765625,0-0.244140625,0.146484375q-0.3173828125,0.3173828125-1.0009765625,0.9033203125q-1.5625,1.46484375-2.44140625,2.24609375q0.244140625-0.146484375,1.96533203125-1.171875t2.67333984375-1.5625q-0.1953125-0.09765625-0.29296875-0.1953125z M85.30615234375,26.58203125q0.0732421875,0-0.439453125,0.64697265625t-0.6591796875,0.79345703125q-0.1953125,0.2197265625-0.59814453125,0.7080078125t-0.59814453125,0.7080078125q1.7333984375-0.9765625,4.052734375-2.3681640625q-0.29296875-0.048828125-0.87890625-0.25634765625t-0.87890625-0.23193359375z M84.40283203125,26.337890625l-0.439453125,0q-0.8056640625,0-0.9521484375-0.146484375q-0.048828125,0.1953125-0.20751953125,0.40283203125t-0.30517578125,0.341796875t-0.40283203125,0.32958984375t-0.32958984375,0.2685546875q-0.2685546875,0.2685546875-2.197265625,1.806640625q0.09765625,0.048828125,0.3662109375-0.08544921875t0.5126953125-0.30517578125t0.54931640625-0.390625t0.35400390625-0.2685546875q1.5625-1.123046875,1.806640625-1.26953125q0-0.0244140625,0.23193359375-0.18310546875t0.5615234375-0.30517578125t0.50048828125-0.146484375q0.146484375,0,0.146484375,0.146484375q0,0.09765625-0.048828125,0.146484375q0.0732421875-0.0244140625,0.20751953125-0.09765625t0.20751953125-0.09765625q-0.48828125-0.1220703125-0.5615234375-0.146484375z M76.61474609375,25.9716796875l-0.6103515625,0.3173828125q0.1708984375-0.0732421875,0.6103515625-0.3173828125q-0.68359375,0.1708984375-1.1474609375,0.1708984375l-0.2685546875,0q-0.09765625,0-0.3173828125-0.03662109375t-0.3173828125-0.03662109375l-0.146484375,0q-3.125,2.1240234375-3.7109375,2.5634765625q-3.564453125,2.5146484375-5.1513671875,3.80859375q1.611328125-1.171875,3.662109375-2.40478515625t3.515625-2.0263671875t3.8818359375-2.03857421875z M71.70751953125,26.142578125l-0.390625,0q-0.6103515625,0-0.8056640625,0.146484375q-0.29296875,0.244140625-0.8544921875,0.72021484375t-0.8544921875,0.72021484375q-2.1484375,1.7578125-3.2958984375,2.8076171875q4.541015625-2.6611328125,7.5927734375-4.39453125q-0.1220703125-0.1220703125-0.390625-0.1220703125q-0.1220703125,0-0.4150390625,0.06103515625t-0.439453125,0.06103515625l-0.146484375,0z M61.64892578125,26.0205078125l-0.048828125,0.048828125l0.048828125-0.048828125q-0.1220703125,0.1220703125-0.244140625,0.1220703125q-0.048828125,0-0.15869140625-0.03662109375t-0.13427734375-0.03662109375q-0.0732421875,0-0.1953125,0.1220703125q-0.0732421875,0.1220703125-0.23193359375,0.3662109375t-0.23193359375,0.3662109375q-0.146484375,0.2197265625-0.45166015625,0.7080078125t-0.45166015625,0.7080078125q1.4404296875-0.8056640625,3.759765625-2.197265625l-0.146484375,0q-0.0732421875,0-0.25634765625,0.0244140625t-0.25634765625,0.0244140625q-0.146484375,0-0.29296875-0.08544921875t-0.1953125-0.08544921875l-0.09765625,0l-0.4150390625,0z M64.65185546875,43.8916015625l-0.048828125,0.048828125l0.048828125-0.048828125q-0.1953125,0-0.1953125,0.1953125l0,0.048828125q0.048828125-0.09765625,0.1953125-0.244140625z M64.50537109375,48.2861328125l0,0.1953125q4.0283203125-3.3447265625,4.8583984375-4.00390625q-0.9521484375,0.5126953125-3.1005859375,1.7578125q-0.29296875,0.146484375-0.8056640625,0.45166015625t-0.8056640625,0.45166015625q-0.1953125,0.1220703125-0.1953125,0.390625q0,0.09765625,0.0244140625,0.30517578125t0.0244140625,0.30517578125l0,0.146484375z M62.64990234375,55.1220703125l0,0.09765625l0-0.09765625q-0.0244140625,0.2197265625-0.244140625,0.37841796875t-0.244140625,0.18310546875q-0.1708984375,0.29296875-0.5126953125,0.634765625q-0.7080078125,0.9033203125-1.3427734375,1.611328125q5.6396484375-3.955078125,8.740234375-5.6396484375q1.5380859375-0.8544921875,2.2216796875-1.0986328125q0.2197265625-0.0732421875,0.29296875-0.40283203125t0.0732421875-0.81787109375t0.0244140625-0.634765625q-4.00390625,2.587890625-6.103515625,3.7841796875q-1.46484375,0.732421875-1.5380859375,0.7568359375q0,0.732421875-0.4638671875,1.0498046875q-0.1953125,0.1220703125-0.50048828125,0.146484375t-0.40283203125,0.048828125z M59.20751953125,58.369140625q0.1708984375-0.0244140625,0.45166015625-0.3173828125t0.6103515625-0.74462890625t0.37841796875-0.52490234375q0.5126953125-0.5859375,1.1474609375-1.3916015625q-0.048828125-0.0732421875-0.30517578125,0.03662109375t-0.59814453125,0.32958984375t-0.6591796875,0.439453125t-0.59814453125,0.4150390625t-0.32958984375,0.2197265625q-0.341796875,0.1953125-0.341796875,1.0498046875q0,0.09765625,0.0244140625,0.29296875t0.0244140625,0.2685546875q0.0732421875-0.0732421875,0.1953125-0.0732421875z M59.96435546875,55.48828125l-0.146484375,0.09765625q0-0.048828125,0.146484375-0.09765625l-0.09765625,0q-0.048828125,0-0.2197265625,0.0244140625t-0.244140625,0.0244140625l-0.09765625,0q-0.29296875,0-0.29296875,0.244140625l0,0.29296875q0.439453125-0.29296875,0.9521484375-0.5859375z M62.25927734375,58.22265625l0.048828125,0l-0.048828125-0.048828125l-0.048828125,0q0.048828125,0,0.048828125,0.048828125q0.09765625-0.048828125,0.29296875-0.048828125q0.09765625,0,0.3173828125,0.0244140625t0.29296875,0.0244140625q0.146484375,0.0244140625,0.37841796875-0.10986328125t0.52490234375-0.35400390625t0.390625-0.2685546875q0.5126953125-0.3662109375,1.59912109375-1.06201171875t1.59912109375-1.03759765625q0.29296875-0.2197265625,1.37939453125-1.01318359375t1.67236328125-1.25732421875q0.6591796875-0.5126953125,0.7080078125-0.68359375l0-0.8056640625q-1.4404296875,0.537109375-3.857421875,2.05078125q-3.0517578125,1.8310546875-6.9580078125,4.638671875q0.1708984375,0.0244140625,0.4150390625-0.10986328125t0.341796875-0.13427734375q0.0244140625,0,0.0732421875,0.0244140625t0.0732421875,0.0244140625l0.09765625,0q0.0732421875,0,0.1953125-0.0244140625t0.1708984375-0.0244140625q0.146484375,0,0.29296875,0.146484375z M65.70166015625,58.3203125q0.09765625,0,0.15869140625-0.0732421875t0.13427734375-0.1953125t0.1220703125-0.1708984375q-0.1220703125,0.0732421875-0.37841796875,0.2197265625t-0.37841796875,0.2197265625l0.244140625,0l0.09765625,0z M67.41064453125,58.369140625l0.048828125-0.048828125l-0.048828125,0.048828125q0.09765625-0.09765625,0.341796875-0.09765625l0.1953125,0q0.1708984375,0,0.2197265625-0.048828125q0.0244140625-0.0244140625,0.3173828125-0.2685546875t0.4638671875-0.3662109375q0.1708984375-0.146484375,0.81787109375-0.68359375t1.03759765625-0.830078125q-0.7080078125,0.390625-2.08740234375,1.1962890625t-2.06298828125,1.220703125q0.048828125,0.048828125,0.146484375,0.048828125q0.0732421875,0,0.2685546875-0.08544921875t0.29296875-0.08544921875l0.048828125,0z M72.75732421875,58.125q0.244140625-0.0732421875,0.45166015625-0.5126953125t0.390625-1.1474609375t0.20751953125-0.78125q-2.880859375,1.611328125-4.58984375,2.63671875l0.09765625,0q0.09765625,0,0.3173828125-0.09765625t0.3173828125-0.09765625l0.6591796875,0l0.29296875,0q0.09765625,0,0.244140625,0.0732421875t0.2197265625,0.0732421875t0.20751953125-0.048828125t0.23193359375-0.048828125q0.146484375,0.0244140625,0.40283203125-0.03662109375t0.35400390625-0.06103515625q0.146484375,0,0.1953125,0.048828125z M76.39501953125,58.4423828125q0.048828125,0,0.1953125-0.03662109375t0.2197265625-0.03662109375l0.09765625,0q0.1220703125-0.048828125,0.25634765625-0.06103515625t0.18310546875-0.0732421875t0.1708984375-0.25634765625q0.87890625-1.220703125,1.6357421875-2.7099609375l-0.09765625,0q-0.1953125,0-0.29296875-0.048828125q-0.0244140625,0.0244140625-0.09765625,0.06103515625t-0.1220703125,0.0732421875t-0.09765625,0.03662109375q-0.244140625,0.1953125-0.732421875,0.48828125q-0.244140625,0.1708984375-0.7568359375,0.52490234375t-0.7568359375,0.52490234375q-1.4892578125,1.025390625-2.197265625,1.3916015625q0.244140625,0.1220703125,0.4150390625,0.1220703125q0.146484375,0,0.4150390625-0.06103515625t0.3662109375-0.06103515625q0.1953125,0.0244140625,0.59814453125,0.06103515625t0.59814453125,0.06103515625z M81.15576171875,58.173828125l-0.048828125,0l0.048828125,0l0.146484375,0q0.1953125,0,0.5615234375-0.048828125t0.537109375-0.048828125q0.439453125,0.048828125,1.1474609375-0.48828125q0.390625-0.29296875,1.0986328125-0.8056640625t1.30615234375-0.96435546875t1.11083984375-0.84228515625q2.9296875-2.0751953125,5.7861328125-4.39453125q-0.9521484375,0.537109375-2.81982421875,1.708984375t-2.81982421875,1.7333984375q-1.904296875,1.123046875-7.4951171875,4.248046875l0.244140625,0q0.1708984375,0,0.52490234375-0.048828125t0.52490234375-0.048828125l0.146484375,0z M87.40576171875,58.3203125l0.146484375,0l-0.146484375,0q0.4150390625,0,1.1474609375-0.732421875q-0.1953125,0.1953125-0.59814453125,0.4638671875t-0.54931640625,0.2685546875z"/><path fill="#ffffff" d=""/></svg>
